<?xml version="1.0" encoding="utf-8"?>
<!-- Generator: Adobe Illustrator 19.1.0, SVG Export Plug-In . SVG Version: 6.00 Build 0)  -->
<svg version="1.1" id="Layer_1" xmlns:sketch="http://www.bohemiancoding.com/sketch/ns"
	 xmlns="http://www.w3.org/2000/svg" xmlns:xlink="http://www.w3.org/1999/xlink" x="0px" y="0px" viewBox="-186 255 238 283"
	 style="enable-background:new -186 255 238 283;" xml:space="preserve">
<style type="text/css">
     	g{fill:#FFFFFF;fill-opacity:0.75;}
     </style>
<g>
	<path class="st0" d="M-97.9,362.4l5.7,1.9c6.9-20.3,6.9-43.8,0.1-69.7l-5.8,1.5C-91.4,321-91.4,343.2-97.9,362.4z"/>
	<path class="st0" d="M-105.2,317.6l4.1-4.3c-6.1-5.8-9.2-11.5-9.1-17c0.1-5.2,3.1-10.5,9-15.6l-4-4.5c-7.2,6.3-10.9,13-11,20
		C-116.2,303.3-112.6,310.5-105.2,317.6z"/>
	<path class="st0" d="M-121,383.2l6,0.5c1.1-14.1,0.1-22.6-4.1-34.6c-3.6-10.3,3.2-24.4,8.6-34.2l-5.2-2.9
		c-6.5,11.7-13.4,26.7-9,39.1C-120.8,362.3-120,369.8-121,383.2z"/>
	<path class="st0" d="M-126.8,398.8c2.2,5.6,5.9,9.7,10.3,11.5c1.7,0.7,3.5,1,5.3,1c2.1,0,4.2-0.5,6.3-1.4l-2.4-5.5
		c-2.4,1.1-4.7,1.2-6.9,0.3c-2.9-1.2-5.4-4.1-7-8.2c-4.4-11.1-16-16.2-24.9-16.2v6C-141.1,386.4-130.6,389-126.8,398.8z"/>
	<path class="st0" d="M-102.8,388l-0.6,6c1.5,0.2,4.5,0.4,8,0.4c2,0,4.3-0.1,6.5-0.3c7.1-0.8,11.5-2.8,13.4-6.2l-5.2-3
		C-82.3,387.8-92,389.1-102.8,388z"/>
	<path class="st0" d="M-100.8,449.4c5.3,0,11.1-1.9,15.1-7.4l-4.8-3.5c-4.9,6.8-13.4,4.7-14.3,4.4c-1.5-0.4-3.9-3.9-5.9-6.7
		c-1.6-2.3-3.3-4.7-5.2-6.8l-1,0.9c-13.2-14.5-19.2-24.7-20.2-34.2l-6,0.6c1.1,11.1,7.6,22.2,22.2,38.1c6,6.6,6.1,21.1,1.7,26.3
		c-4.9,5.8-11.1,8.2-17.9,6.9l-1.1,5.9c1.5,0.3,3,0.4,4.5,0.4c7.2,0,13.8-3.2,19.1-9.3c3.7-4.3,5.1-11.6,4.4-18.7
		c1.2,1.1,2.4,1.9,3.8,2.3C-104.7,449.1-102.8,449.4-100.8,449.4z"/>
	<path class="st0" d="M-154,417.9c1.8-16.1-0.6-24.4-9.2-31.8l-3.9,4.5c6.1,5.3,8.9,10.8,7.1,26.6c-1.1,9.6,1.5,23.6,20.2,35.7
		l3.2-5C-145.4,442.2-155.6,432.3-154,417.9z"/>
	<path class="st0" d="M-114.2,503.1c-8.9-6.3-12.6-12-19.2-26l-5.4,2.6c6.4,13.6,10.6,20.9,21.2,28.3c8,5.7,16.3,6.4,19.9,6.4
		c1.1,0,1.8-0.1,1.9-0.1l-0.6-6C-96.5,508.4-105.6,509.2-114.2,503.1z"/>
	<path class="st0" d="M-110.9,473.4l-0.4,6c2.7,0.2,9.5,1.1,15.5,5.1c5.4,3.6,8.3,8.7,8.8,15.1l6-0.4
		C-82.2,482.8-96.9,474.4-110.9,473.4z"/>
	<path class="st0" d="M43.7,441.6C54,430.8,52,411.7,51.1,406c-1.1-7.2-5-9.4-7.1-10.4c0.7-7.2,0.4-32.4-0.1-37
		c-0.7-5.4-8.9-15.9-14.1-18.6c0.1-0.5,0.2-1,0.3-1.4c2.4-11.7-4.7-30-11.9-35.6c-2.9-2.3-5.3-2.1-6.8-1.4l-0.3-4.8
		c-1.2-16.7-16.4-27.6-23.9-28.5c-3-0.4-4.9,0.7-6,1.7l0,0c-3.3-5.1-9.6-10.7-19.5-13.6c-12.5-3.7-24.1,6-29.2,11.3
		c-5.6-5.4-16.5-13.7-28.2-10.3c-9.9,2.9-16.2,8.5-19.5,13.6l0,0c-1.1-1-3.1-2.1-6-1.7c-7.5,0.9-22.8,11.9-23.9,28.5l-0.3,4.8
		c-1.5-0.6-3.9-0.9-6.8,1.4c-7.2,5.7-14.3,24-11.9,35.6c0.1,0.5,0.2,1,0.3,1.4c-5.2,2.8-13.4,13.2-14.1,18.6
		c-0.6,4.6-0.8,29.8-0.1,37c-2.1,1.1-6,3.3-7.1,10.4c-0.9,5.7-2.9,24.8,7.4,35.6c-0.2,0.4-0.4,0.8-0.5,1.2
		c-0.5,2.5,0.9,23.9,4.5,28.8c1.2,1.7,5,4.9,12.2,11.1c9.9,8.4,23.4,20,27.1,25.8c0.4,0.7,0.9,1.4,1.4,2.2
		c6.3,10.2,15.8,25.7,32.6,25.7c0,0,0,0,0.1,0c16.3,0,28-8.2,33.9-17.8c6.1,9.1,17.5,16.8,33.3,16.8c0,0,0,0,0.1,0
		c16.8,0,26.3-15.5,32.6-25.7c0.5-0.8,0.9-1.5,1.4-2.2c3.6-5.8,17.2-17.4,27.1-25.8c7.2-6.1,11-9.4,12.2-11.1
		c3.5-4.9,5-26.4,4.5-28.8C44.2,442.4,44,442,43.7,441.6z M-100.7,531.4C-100.7,531.4-100.8,531.4-100.7,531.4
		c-13.5,0-21.6-13.2-27.5-22.8c-0.5-0.8-0.9-1.5-1.4-2.2c-4.1-6.6-17.5-18-28.3-27.2c-4.9-4.1-10.4-8.8-11.2-10
		c-1.5-2.1-2.9-13.1-3.3-19.7c1.9,1.5,4.1,3.4,6.1,5.2l4.4-4c-0.1-0.1-2.4-3.2-11.2-11.6c-7.1-6.9-8-20.6-6.3-31.1
		c0.7-4.4,2.5-5.3,4.1-6.1c1.1-0.5,4-2,3.1-5.2c-0.5-2.6-0.6-30.5,0.1-36.3c0.4-3.5,6.4-10.5,9.6-13.1c0.1,0.2,0.1,0.3,0.2,0.5
		c1.9,6.9,3.8,12,3.9,12.3l5.7-1.8c-1.6-5.9-2.9-9.9-4-12.5c-0.6-2.3-1.2-4.7-1.7-7.3c-1.9-9.4,4-25.2,9.7-29.7
		c0.4-0.3,0.7-0.5,0.9-0.5c0.6,0.7,1.4,3.4,1.5,5.6h6l1.1-15.6c0.9-13.5,13.7-22.4,18.7-23c0.9-0.1,1.2,0.1,1.3,0.3
		c0.7,0.6,1.1,2.4,1.1,3.3h6c0-2.2,4.5-11.6,18.1-15.6c9.2-2.7,18.6,5.1,23,9.5v237.7l0.1,0.4c0.2,0.9,0.5,1.7,0.9,2.6
		C-75.3,525.2-88.9,531.4-100.7,531.4z M38.9,438c-8.7,8.4-11.1,11.5-11.2,11.6l4.4,4c2-1.8,4.2-3.7,6.1-5.2
		c-0.4,6.6-1.8,17.6-3.3,19.7c-0.8,1.2-6.4,5.9-11.2,10c-10.8,9.2-24.1,20.6-28.3,27.2c-0.4,0.7-0.9,1.5-1.4,2.2
		c-5.9,9.6-14.1,22.8-27.5,22.8l0,0c-11.5,0-24.8-5.9-30.2-17.3c0.2-0.5,0.3-1,0.5-1.5l0.1-0.4V272.5l-0.4-0.5
		c4.2-4.4,13.9-12.8,23.5-10c13.6,4,18.1,13.4,18.1,15.6h6c0-0.8,0.3-2.6,1.1-3.3c0.1-0.1,0.4-0.4,1.3-0.3c5,0.6,17.7,9.5,18.7,23
		l1.1,15.6h6c0.1-2.3,0.9-4.9,1.5-5.6c0.2,0.1,0.4,0.2,0.9,0.5c5.7,4.5,11.7,20.3,9.7,29.7c-0.5,2.5-1.1,5-1.7,7.3
		c-1.1,2.6-2.4,6.6-4,12.5l5.7,1.8c0.1-0.3,2.1-5.4,3.9-12.3c0.1-0.2,0.1-0.3,0.2-0.5c3.1,2.7,9.1,9.6,9.6,13.1
		c0.7,5.7,0.6,33.6,0.1,36.2c-0.9,3.3,2,4.8,3.1,5.3c1.6,0.8,3.4,1.7,4.1,6.1C46.8,417.4,46,431.1,38.9,438z"/>
	<path class="st0" d="M-35.3,362.4c-6.5-19.2-6.5-41.5,0.1-66.3l-5.8-1.5c-6.9,25.9-6.8,49.4,0.1,69.7L-35.3,362.4z"/>
	<path class="st0" d="M-33.2,313.2l4.1,4.3c7.4-7,11.1-14.2,10.9-21.4c-0.1-7-3.8-13.7-11-20l-4,4.5c5.9,5.2,8.9,10.4,9,15.6
		C-24,301.7-27,307.4-33.2,313.2z"/>
	<path class="st0" d="M-23.7,314.9c5.4,9.8,12.2,23.9,8.6,34.2c-4.2,12-5.2,20.4-4.1,34.6l6-0.5c-1-13.4-0.2-20.9,3.8-32.1
		c4.3-12.4-2.6-27.4-9-39.1L-23.7,314.9z"/>
	<path class="st0" d="M-21,404.8c-2.2,0.9-4.5,0.8-6.9-0.3l-2.4,5.5c2.1,0.9,4.2,1.4,6.3,1.4c1.8,0,3.6-0.3,5.3-1
		c4.4-1.8,8.1-5.9,10.3-11.5c3.8-9.9,14.3-12.5,19.3-12.5v-6c-8.9,0-20.5,5.1-24.9,16.2C-15.6,400.7-18.1,403.6-21,404.8z"/>
	<path class="st0" d="M-38.8,394.4c3.5,0,6.5-0.3,8-0.4l-0.6-6c-10.7,1.1-20.4-0.3-22.1-3.1l-5.2,3c2,3.4,6.3,5.4,13.4,6.2
		C-43.1,394.3-40.9,394.4-38.8,394.4z"/>
	<path class="st0" d="M-15,461.2c-4.5-5.2-4.4-19.7,1.7-26.3c14.6-16,21-27,22.2-38.1l-6-0.6c-1,9.5-7,19.8-20.2,34.2l-1-0.9
		c-1.9,2.1-3.6,4.5-5.2,6.8c-2,2.8-4.4,6.3-5.9,6.7c-0.9,0.3-9.4,2.3-14.3-4.4l-4.8,3.5c4,5.5,9.9,7.4,15.1,7.4c2,0,3.9-0.3,5.6-0.7
		c1.4-0.4,2.6-1.2,3.8-2.3c-0.7,7.1,0.7,14.4,4.4,18.7c5.2,6.1,11.9,9.3,19.1,9.3c1.5,0,3-0.1,4.5-0.4l-1.1-6
		C-3.9,469.3-10.1,466.9-15,461.2z"/>
	<path class="st0" d="M21.8,417.9c1.6,14.4-8.6,24.2-17.5,29.9l3.2,5c18.7-12,21.3-26,20.2-35.7c-1.8-15.8,1-21.3,7.1-26.6l-3.9-4.5
		C22.4,393.5,20,401.8,21.8,417.9z"/>
	<path class="st0" d="M-21,503.1c-8.6,6.1-17.7,5.3-17.8,5.3l-0.6,6c0.1,0,0.8,0.1,1.9,0.1c3.7,0,11.9-0.7,19.9-6.4
		c10.6-7.5,14.7-14.7,21.2-28.3l-5.4-2.6C-8.4,491.1-12.1,496.8-21,503.1z"/>
	<path class="st0" d="M-23.9,479.4l-0.4-6c-14,1-28.7,9.4-29.8,25.8l6,0.4c0.4-6.4,3.4-11.5,8.8-15.1
		C-33.4,480.5-26.5,479.6-23.9,479.4z"/>
</g>
</svg>
