<?xml version="1.0" encoding="utf-8"?>
<!-- Generator: Adobe Illustrator 19.2.1, SVG Export Plug-In . SVG Version: 6.00 Build 0)  -->
<!DOCTYPE svg PUBLIC "-//W3C//DTD SVG 1.1//EN" "http://www.w3.org/Graphics/SVG/1.1/DTD/svg11.dtd">
<svg version="1.1" id="Layer_1" xmlns:sketch="http://www.bohemiancoding.com/sketch/ns"
	 xmlns="http://www.w3.org/2000/svg" xmlns:xlink="http://www.w3.org/1999/xlink" x="0px" y="0px" viewBox="0 0 1117 630"
	 style="enable-background:new 0 0 1117 630;" xml:space="preserve">
<style type="text/css">
	.st0{fill:#FFFFFF;fill-opacity:0.75;}
</style>
<path class="st0" d="M1011.5,486.3c-1.7,0-3.2,0.6-4.5,1.5l-89.5-94.1l-15.4-187.2c3.5-0.7,6-3.8,6-7.5c0-4.2-3.4-7.7-7.7-7.7
	c-4.2,0-7.6,3.4-7.7,7.6l-48.2,22.5c-1.4-2.1-3.7-3.6-6.4-3.6l-8.7-48.5c3.1-1,5.3-3.9,5.3-7.3c0-4.2-3.4-7.7-7.7-7.7
	c-4,0-7.3,3-7.6,6.9l-201.3,7.1l-169.2-55.1c0.1-0.4,0.1-0.8,0.1-1.2c0-3.7-2.6-6.8-6.1-7.5l4.3-56.2c4.2-0.1,7.5-3.5,7.5-7.7
	s-3.4-7.7-7.7-7.7c-3.9,0-7.1,2.9-7.6,6.6l-197.8,83.8c-1.3-2.3-3.8-3.8-6.6-3.8c-2.4,0-4.6,1.1-6,2.9l-58.1-34.6
	c0.4-0.9,0.6-2,0.6-3c0-3.2-1.9-5.9-4.6-7l16.9-59.1c0.4,0.1,0.8,0.1,1.1,0.1c4.3,0,7.8-3.5,7.8-7.8s-3.5-7.8-7.8-7.8
	s-7.8,3.5-7.8,7.8c0,3.2,1.9,5.9,4.7,7.1L165,77.4c-0.4-0.1-0.7-0.1-1.1-0.1c-0.6,0-1.1,0.1-1.7,0.2l-16.3-44.4
	c2.2-1.4,3.6-3.8,3.6-6.6c0-4.3-3.5-7.8-7.8-7.8s-7.8,3.5-7.8,7.8s3.5,7.8,7.8,7.8c0.8,0,1.6-0.1,2.3-0.3l16.3,44.3
	c-2.4,1.3-4.1,3.8-4.1,6.8c0,4.2,3.4,7.7,7.7,7.7c0.8,0,1.6-0.1,2.4-0.4l40.3,84.9c-2.1,1.4-3.5,3.7-3.5,6.4c0,4.2,3.4,7.6,7.6,7.7
	l10.9,91c-3.2,0.9-5.5,3.9-5.5,7.4c0,4.2,3.4,7.7,7.7,7.7c1,0,1.9-0.2,2.7-0.5l84.3,101.6c-1.3,1.4-2,3.2-2,5.2c0,3.8,2.8,7,6.5,7.6
	l-1.3,57.5c-3.8,0.4-6.8,3.7-6.8,7.6c0,4.2,3.4,7.7,7.7,7.7c0.4,0,0.8,0,1.1-0.1l19.8,69.1c-2.7,1.2-4.6,3.9-4.6,7
	c0,4.2,3.4,7.7,7.7,7.7c4.3,0,7.7-3.4,7.7-7.7c0-2.6-1.3-4.8-3.2-6.2l64.5-120.3c0.8,0.3,1.8,0.5,2.7,0.5c3,0,5.7-1.8,6.9-4.4
	l192.7,63c-0.1,0.5-0.1,0.9-0.1,1.4c0,4.2,3.4,7.7,7.7,7.7s7.7-3.4,7.7-7.7c0-2.5-1.2-4.6-3-6.1l42.3-105.7l66.4-57.5l53.8,17.6
	c-0.2,0.7-0.3,1.4-0.3,2.2c0,4.2,3.4,7.7,7.7,7.7c1.6,0,3-0.5,4.2-1.3l123,141.1c-1.2,1.4-1.9,3.1-1.9,5.1c0,4.2,3.4,7.7,7.7,7.7
	c0.1,0,0.2,0,0.2,0l11,67.8c-2.8,1.2-4.7,3.9-4.7,7.1c0,4.3,3.5,7.8,7.8,7.8s7.8-3.5,7.8-7.8s-3.5-7.8-7.8-7.8c-0.4,0-0.7,0-1.1,0.1
	l-10.9-67.5c1.2-0.3,2.2-1,3-1.8l63.2,51.6c-0.3,0.8-0.4,1.6-0.4,2.5c0,4.2,3.4,7.7,7.7,7.7s7.7-3.4,7.7-7.7c0-3.4-2.3-6.4-5.4-7.3
	l8.2-47.7c0.1,0,0.2,0,0.3,0c4.2,0,7.7-3.4,7.7-7.7C1019.6,489.9,1015.7,486.3,1011.5,486.3z M900.1,206.7l15.2,184.7l-41.9-44
	c1.1-1.3,1.7-3,1.7-4.8c0-3.3-2.1-6.1-5-7.2l29.1-128.8C899.5,206.6,899.8,206.6,900.1,206.7z M845.7,225.5c0-0.8-0.1-1.6-0.3-2.3
	l47.8-22.2c0.6,2.2,2.2,4,4.2,4.9l-29.1,128.9c-0.1,0-0.3,0-0.4,0L841,232.5C843.7,231.5,845.7,228.7,845.7,225.5z M827,169.7
	c0.1,0,0.2,0,0.4,0l8.7,48.4c-2.5,0.7-4.6,2.6-5.3,5.1l-89.5-15.9c0-0.1,0-0.2,0-0.3c0-0.8-0.1-1.6-0.4-2.4l79.8-38.4
	C822,168.3,824.3,169.7,827,169.7z M666,294.8c-4.2,0-7.7,3.4-7.7,7.7c0,0.2,0,0.3,0,0.5l-141.8,27.7c-0.3-1.7-1.2-3.3-2.4-4.4
	l17.1-22.8l124.7-58.8l51.4,25l-16,40l-17.8-5.8c0.1-0.5,0.1-0.9,0.1-1.4C673.7,298.3,670.2,294.8,666,294.8z M377.5,257.4
	l-55.8-32.2c0.3-0.7,0.5-1.4,0.5-2.1l70.8-1.5L377.5,257.4z M395.3,221.6l180.8-3.9l-196.3,39.5L395.3,221.6z M378.5,260.3
	l107.8,62.1l-163.5,77.1c-0.9-1.4-2.2-2.4-3.7-3L378.5,260.3z M317.3,395.7l-1.1-123.6l60.3-12.1L317.3,395.7z M380.5,259.1
	l206.9-41.6h2c0.1,0.2,0.2,0.5,0.3,0.7L530,259.8c-1.4-1.5-3.4-2.5-5.7-2.5c-4.2,0-7.7,3.4-7.7,7.7c0,3.2,2,6,4.9,7.1l-9.4,38.1
	l-23.6,11.2L380.5,259.1z M529.9,301.9l-15.4,7.3l9-36.5c0.3,0,0.6,0,0.8,0c4.2,0,7.7-3.4,7.7-7.7c0-1.3-0.3-2.5-0.9-3.5l59.7-41.6
	c0.1,0.1,0.2,0.2,0.3,0.3L529.9,301.9z M592.7,221.4c1.1,0.6,2.4,1,3.8,1c2.7,0,5-1.4,6.4-3.4l50.7,24.7l-119.8,56.5L592.7,221.4z
	 M511.5,312.8l-2.9,11.6c-3.1,0.1-5.7,2.1-6.8,4.8l-11.3-6.5L511.5,312.8z M513.9,311.7l13.5-6.3l-14.9,19.9
	c-0.5-0.3-1.1-0.5-1.7-0.6L513.9,311.7z M658.2,243.6l68.8-32.5c0.7,1.1,1.6,1.9,2.7,2.5L708,267.8L658.2,243.6z M731.6,214.4
	c0.6,0.2,1.2,0.2,1.9,0.2c0.5,0,1.1-0.1,1.6-0.2l25.8,73.3c-1.7,0.8-3.1,2.1-3.9,3.9l-47.1-22.9L731.6,214.4z M737,213.8
	c1.8-0.9,3.2-2.5,3.8-4.5l89.5,15.9c0,0.1,0,0.2,0,0.3c0,1.7,0.5,3.2,1.4,4.5l-62.9,58.9c-1.3-1.1-3-1.7-4.9-1.7
	c-0.4,0-0.8,0-1.2,0.1L737,213.8z M819.4,163.3c0.1,0.4,0.2,0.8,0.3,1.1l-79.8,38.4c-1.4-2.1-3.7-3.5-6.4-3.5c-3,0-5.7,1.8-6.9,4.4
	l-102.9-33.5L819.4,163.3z M726,205.6c-0.1,0.5-0.1,0.9-0.1,1.4c0,0.8,0.1,1.6,0.4,2.3L656,242.4L603.9,217c0.3-0.8,0.4-1.6,0.4-2.4
	c0-4.2-3.4-7.7-7.7-7.7s-7.7,3.4-7.7,7.7c0,0.2,0,0.3,0,0.5l-1.7,0.3l-191,4.1l18.3-42.1l203.3-7.1L726,205.6z M448.3,115.1
	l164,53.4l-196.9,6.9l24.4-56c0.5,0.1,1,0.2,1.5,0.2C444.5,119.7,447.1,117.8,448.3,115.1z M439.4,41.8c0.5,3.1,2.8,5.6,5.8,6.3
	l-4.3,56.3c-3.9,0.2-7,3.3-7.2,7.2l-191.2,14.2c0-0.2-0.1-0.3-0.1-0.5L439.4,41.8z M235.5,135c3.9-0.2,7-3.3,7.2-7.2l191.2-14.2
	c0.5,2.3,2,4.3,4.1,5.3l-24.7,56.7l-181,6.4L235.5,135z M233.5,134.9l-3.3,47.1l-12,0.4c-0.4-2.3-1.7-4.2-3.6-5.3l18.3-42.4
	C233.1,134.8,233.3,134.8,233.5,134.9z M208.3,176.4l-40.3-85c0.7-0.5,1.3-1,1.9-1.7l58.1,34.6c-0.4,0.9-0.6,2-0.6,3
	c0,2.8,1.5,5.2,3.7,6.6l-18.3,42.4c-0.7-0.2-1.4-0.3-2.1-0.3C209.8,176,209.1,176.1,208.3,176.4z M223.3,280.6l-10.7-89.5
	c3.1-0.8,5.4-3.4,5.7-6.7L230,184L223.3,280.6z M225.2,282.2l6.9-98.2l180.3-6.3L394,219.6l-71.8,1.5c-0.6-3.7-3.7-6.5-7.6-6.5
	c-4.2,0-7.7,3.4-7.7,7.7c0,1.3,0.4,2.6,1,3.7l-78.7,58.4C228.1,283.3,226.7,282.5,225.2,282.2z M314.1,270.5l-83.2,16.7
	c-0.1-0.4-0.3-0.8-0.5-1.2l78.8-58.3c1.2,1.2,2.8,2.1,4.6,2.3L314.1,270.5z M312.3,397.2l-84.1-101.3c1.9-1.4,3.2-3.6,3.2-6.2
	c0-0.2,0-0.3,0-0.5l82.8-16.7l1.1,123.6C314.2,396.2,313.1,396.6,312.3,397.2z M320.7,227l54.2,31.2L316.1,270l-0.4-40.1
	C317.7,229.6,319.5,228.5,320.7,227z M315.9,468.8l1.3-57.5c3.8-0.4,6.8-3.7,6.8-7.6c0-0.8-0.1-1.6-0.4-2.3l164.8-77.7l13,7.5
	c0,0.3-0.1,0.6-0.1,0.9c0,1.4,0.4,2.6,1,3.7L320.2,471C319.1,469.8,317.6,469,315.9,468.8z M341.4,552.8c-0.8-0.3-1.8-0.5-2.7-0.5
	c-0.4,0-0.8,0-1.1,0.1l-19.9-69c2.7-1.2,4.6-3.9,4.6-7c0-0.9-0.2-1.8-0.5-2.6l82.2-43c0.5,0.7,1.1,1.3,1.8,1.8L341.4,552.8z
	 M415.1,420.4c-1.3-1.1-3-1.7-4.8-1.7c-4.2,0-7.7,3.4-7.7,7.7c0,0.9,0.2,1.8,0.5,2.6l-77.7,40.6l171.3-127.2L415.1,420.4z
	 M417.4,423.1c-0.2-0.5-0.5-0.9-0.8-1.3l87.7-83.8c1.3,1.1,3,1.7,4.8,1.7c4,0,7.4-3.1,7.8-7L659,304.9L417.4,423.1z M610.6,490.7
	l-192.7-63l188.6-4c0.5,3.5,3.4,6.2,6.9,6.5l2.8,56.3C613.7,486.9,611.6,488.5,610.6,490.7z M620.5,486.9c-0.7-0.3-1.5-0.5-2.3-0.6
	l-2.8-56.3c3.6-0.6,6.3-3.8,6.3-7.5c0-1-0.2-1.9-0.5-2.7l40-34.6L620.5,486.9z M662.8,381.1L620.2,418c-1.4-1.9-3.6-3.1-6.2-3.1
	c-4,0-7.2,3-7.6,6.8l-188.4,4c0-0.2-0.1-0.5-0.1-0.7l241.7-118.2c1.4,2.1,3.7,3.4,6.4,3.4c3,0,5.7-1.8,6.9-4.4l17.7,5.8L662.8,381.1
	z M666.1,378.2l26.4-66l36.2,11.8L666.1,378.2z M730.4,322.5l-37.2-12.1l15.9-39.7l47.3,23c-0.1,0.4-0.1,0.8-0.1,1.2
	c0,1.5,0.5,3,1.2,4.2L730.4,322.5z M785.5,340.5l-52.8-17.3l26.2-22.7c1.4,1.2,3.2,2,5.1,2c1,0,2-0.2,2.9-0.6l20.5,36.4
	C786.6,339,786,339.7,785.5,340.5z M795.9,337.9c-1.1-0.7-2.4-1-3.9-1c-1,0-2,0.2-2.9,0.6l-20.5-36.4c1.9-1.4,3.1-3.6,3.1-6.1
	c0-1.7-0.5-3.2-1.4-4.5l62.9-58.9c0.4,0.3,0.8,0.6,1.3,0.9L795.9,337.9z M836.3,233c0.5,0.1,1.1,0.2,1.7,0.2c0.3,0,0.6,0,1-0.1
	L865.8,335c-3.1,0.7-5.6,3.4-5.9,6.7l-60.3,1.6c-0.3-1.6-1-3-2.1-4.1L836.3,233z M920.8,490.6l-123-141.1c1-1.2,1.7-2.6,1.9-4.3
	l60.3-1.6c0.6,3.7,3.7,6.5,7.6,6.5c0.6,0,1.2-0.1,1.7-0.2l52.2,140.3C921.2,490.4,921,490.5,920.8,490.6z M871.1,349.2
	c0.3-0.2,0.6-0.4,0.9-0.6l43.6,45.8l7.7,95.1L871.1,349.2z M1001,549c-0.1,0-0.2,0-0.3,0c-2.6,0-5,1.3-6.3,3.4l-62.8-51.3
	c0.7-1.2,1.2-2.6,1.2-4c0-4.1-3.2-7.5-7.3-7.6l-7.6-92.5l87.8,92.3c-1.1,1.3-1.7,3-1.7,4.8c0,3.4,2.3,6.4,5.4,7.3L1001,549z"/>
</svg>
