<?xml version="1.0" encoding="utf-8"?>
<!-- Generator: Adobe Illustrator 19.1.0, SVG Export Plug-In . SVG Version: 6.00 Build 0)  -->
<svg version="1.1" id="Layer_1" xmlns="http://www.w3.org/2000/svg" xmlns:xlink="http://www.w3.org/1999/xlink" x="0px" y="0px"
	 viewBox="0 0 1440 4096" style="enable-background:new 0 0 1440 4096;" xml:space="preserve">
<style type="text/css">
	path{fill:#FFFFFF;fill-opacity:0.5;}
</style>
<g>
	<path d="M47.6,1952.8c-1,0-1.9,0.2-2.8,0.5l-43.7-79.9l-1.8,1l43.7,79.9c-1.9,1.4-3.1,3.6-3.1,6.2c0,4.2,3.4,7.7,7.7,7.7
		c0,0,0,0,0,0l13.3,96.3c-3.2,0.9-5.6,3.9-5.6,7.4c0,4.2,3.4,7.7,7.7,7.7c1.6,0,3-0.5,4.3-1.3l79.3,90.3c-1.2,1.3-1.9,3.1-1.9,5
		c0,4.1,3.2,7.4,7.2,7.6l2.7,40.6c-3.4,0.8-5.9,3.8-5.9,7.4c0,4,3,7.2,6.9,7.6l2.8,41.6c-3.4,0.8-6,3.8-6,7.5c0,4.2,3.4,7.7,7.7,7.7
		s7.7-3.4,7.7-7.7c0-0.1,0-0.2,0-0.4l24.2-10.9c1.4,2.2,3.8,3.6,6.5,3.6c4.2,0,7.7-3.4,7.7-7.7c0,0,0,0,0,0l203.5-26.9
		c0.8,3.4,3.8,6,7.5,6c4.2,0,7.7-3.4,7.7-7.7c0-0.5-0.1-1-0.1-1.5l33.6-11.2c1.2,2.6,3.9,4.3,6.9,4.3c4.2,0,7.7-3.4,7.7-7.7
		c0-4.2-3.4-7.7-7.7-7.7c-1.3,0-2.6,0.3-3.7,0.9l-16.1-22l28.7-47.6c0.9,0.4,2,0.6,3.1,0.6c4.2,0,7.7-3.4,7.7-7.7
		c0-0.9-0.2-1.8-0.5-2.7l91.2-48.2c1.4,2,3.7,3.2,6.2,3.2c4.2,0,7.7-3.4,7.7-7.7c0-0.7-0.1-1.5-0.3-2.1l76.1-33.2
		c1.3,2.2,3.8,3.7,6.6,3.7c4.2,0,7.7-3.4,7.7-7.7s-3.4-7.7-7.7-7.7c-1.9,0-3.6,0.7-4.9,1.8l-48.2-44.7c0.9-1.3,1.4-2.8,1.4-4.4
		c0-2.7-1.4-5.1-3.6-6.5l40.3-86.6c0.7,0.2,1.5,0.4,2.3,0.4c4.2,0,7.7-3.4,7.7-7.7c0-2.5-1.2-4.8-3.1-6.2l30.7-56
		c0.9,0.3,1.8,0.5,2.8,0.5c3.9,0,7.1-2.9,7.6-6.7h80.1c0.5,3.8,3.7,6.7,7.6,6.7c4.2,0,7.7-3.4,7.7-7.7c0-1.1-0.2-2.1-0.7-3.1
		l232.7-141.6c1.4,1.7,3.6,2.9,6,2.9c0.1,0,0.2,0,0.3,0l15.5,92.2c-3.1,1-5.4,3.9-5.4,7.3c0,4.2,3.4,7.7,7.7,7.7
		c3.4,0,6.3-2.2,7.3-5.3l47.4,8.6c0,0.1,0,0.2,0,0.4c0,4.2,3.4,7.7,7.7,7.7s7.7-3.4,7.7-7.7s-3.4-7.7-7.7-7.7
		c-3.4,0-6.3,2.2-7.3,5.3l-47.4-8.6c0-0.1,0-0.2,0-0.4c0-2.9-1.6-5.4-4-6.7l20.6-53.6c0.6,0.1,1.2,0.2,1.8,0.2
		c4.2,0,7.7-3.4,7.7-7.7c0-4.2-3.4-7.7-7.7-7.7c-1.9,0-3.7,0.7-5,1.9l-32.7-29.2c0.8-1.2,1.3-2.7,1.3-4.3c0-1.3-0.3-2.5-0.9-3.6
		l60.3-42.6c1.4,1.5,3.4,2.5,5.6,2.5c3.4,0,6.2-2.2,7.2-5.2l107.8,21.8c0,0.2,0,0.3,0,0.5c0,4.2,3.4,7.7,7.7,7.7
		c1.9,0,3.6-0.7,5-1.8l97.1,87.8c-0.9,1.2-1.4,2.7-1.4,4.4c0,4.2,3.4,7.7,7.7,7.7c2.6,0,4.8-1.3,6.2-3.2l40.3,21.8
		c-0.1,0.5-0.2,1.1-0.2,1.7c0,4.2,3.4,7.7,7.7,7.7c2.2,0,4.1-0.9,5.5-2.3l0.2,0.1l0.5-0.9c0.9-1.3,1.5-2.8,1.5-4.5
		c0-4.2-3.4-7.7-7.7-7.7c-2.9,0-5.5,1.7-6.8,4.1l-40.1-21.7c0.3-0.9,0.5-1.8,0.5-2.7c0-4.2-3.4-7.7-7.7-7.7c-0.3,0-0.7,0-1,0.1
		l-58.1-219.1c2.8-1.1,4.8-3.9,4.8-7.1c0-3-1.7-5.6-4.2-6.8l33.2-95.1c0.5,0.1,1,0.2,1.6,0.2c4.2,0,7.7-3.4,7.7-7.7
		c0-1.7-0.6-3.3-1.5-4.5l48.5-46.5c1.3,1.1,3,1.7,4.8,1.7c4.2,0,7.7-3.4,7.7-7.7c0-3.1-1.9-5.8-4.6-7l34.3-118.4
		c0.4,0.1,0.8,0.1,1.2,0.1c4.2,0,7.7-3.4,7.7-7.7c0-2.7-1.4-5.1-3.5-6.4l21.5-45.1l-1.8-0.9l-21.5,45.1c-0.7-0.2-1.5-0.4-2.4-0.4
		c-0.3,0-0.7,0-1,0.1l-24.1-90.3c2.8-1.1,4.7-3.9,4.7-7.1c0-4.2-3.4-7.7-7.7-7.7c-0.5,0-1,0.1-1.5,0.1l-28.7-85.1
		c1-0.5,1.8-1.1,2.5-1.9l79.9,51.3l1.1-1.7l-79.9-51.3c0.5-1,0.7-2.1,0.7-3.3c0-4.1-3.3-7.5-7.3-7.6l-2.9-32.5c2.3-0.6,4-2.7,4-5.2
		c0-1.4-0.5-2.7-1.4-3.6L1399,899c0.3,0.1,0.7,0.1,1,0.1c2.4,0,4.4-1.5,5.1-3.6l35,5.4l0.3-2l-35-5.4c-0.1-2.9-2.5-5.2-5.4-5.2
		c-3,0-5.4,2.4-5.4,5.4c0,0.4,0.1,0.8,0.1,1.2l-97.1,31.4c-1-2-2.8-3.6-5-4.1l16.1-137.7c3.6-0.1,6.7-2.6,7.4-6.1l124.1,9.7l0.2-2
		l-123.4-9.6l123.4-13.8l-0.2-2l-121.5,13.5l76.8-27.6c1.3,2.5,3.8,4.2,6.8,4.2c3.1,0,5.7-1.8,6.9-4.4l30.8,9.7l0.6-1.9l-30.8-9.7
		c0.1-0.4,0.1-0.9,0.1-1.3c0-2.7-1.4-5-3.5-6.4l19.9-41.1l12.7,18.6l1.6-1.1l-13.4-19.5l13.5-27.8l-1.8-0.9l-13,26.7l-27.3-39.7
		c0.9-1.3,1.4-2.8,1.4-4.4c0-1.8-0.6-3.4-1.6-4.7l28.1-45.3c1,0.4,2,0.7,3.2,0.7c4.2,0,7.7-3.4,7.7-7.7c0-2-0.8-3.9-2.1-5.3l5.6-6.9
		l-1.6-1.3l-5.6,6.9c-1-0.6-2.1-1-3.3-1.1l-4.4-95.8c2.1-0.7,3.7-2.7,3.7-5h10.3v-2h-10.7c-0.6-1.7-2.1-3-3.8-3.4l-2.1-47.1
		c3.6-0.6,6.3-3.8,6.3-7.5c0-4.2-3.4-7.7-7.7-7.7c-1.3,0-2.6,0.3-3.7,0.9l-26.1-35.9c1-0.9,1.7-2.1,2.1-3.4l45.5,6.9l0.3-2
		l-45.5-6.9c0-0.1,0-0.1,0-0.2c0-1.4-0.4-2.7-1-3.8l47-36l-1.2-1.6l-47,36c-1.4-1.4-3.3-2.2-5.4-2.2c0,0-0.1,0-0.1,0l-13.2-92.6
		c2.2-0.6,4.1-2.2,5-4.3l61,17.3l0.5-1.9l-61-17.4c0.1-0.4,0.1-0.7,0.1-1.1c0-1.6-0.5-3.1-1.3-4.3l62.7-56.4l-1.3-1.5l-62.7,56.4
		c-0.3-0.3-0.7-0.5-1-0.7l49-113.1c0.7,0.2,1.4,0.3,2.1,0.3c3.9,0,7.1-2.9,7.6-6.7h5.7v-2h-5.7c-0.5-3.8-3.7-6.7-7.6-6.7
		c-0.2,0-0.4,0-0.5,0l-12.3-59.9c1.5-0.5,2.9-1.5,3.8-2.9l21.9,11.3l0.9-1.8L1418.8,67c0.3-0.8,0.5-1.7,0.5-2.6c0-1.9-0.7-3.6-1.8-5
		l23.6-26.3l-1.5-1.3l-23.6,26.3c-1-0.7-2.1-1.1-3.3-1.3l0.6-57l-2,0l-0.6,57c-3.8,0.5-6.7,3.7-6.7,7.6c0,4.2,3.4,7.7,7.7,7.7
		c0.2,0,0.4,0,0.5,0l12.3,59.9c-3,1-5.2,3.9-5.2,7.2c0,2.8,1.5,5.2,3.7,6.6l-49,113.1c-0.7-0.2-1.4-0.3-2.1-0.3
		c-4.2,0-7.7,3.4-7.7,7.7c0,4.2,3.4,7.7,7.7,7.7c0,0,0.1,0,0.1,0l13.2,92.6c-3.2,0.9-5.6,3.9-5.6,7.4c0,3.4,2.2,6.3,5.3,7.3
		l-17.2,92.3c-0.1,0-0.3,0-0.4,0c-3.9,0-7.2,3-7.6,6.8l-98.6,1.5c-0.5-3.7-3.7-6.5-7.6-6.5c-3.5,0-6.4,2.3-7.4,5.5l-72.7-11.3
		c0-0.1,0-0.1,0-0.2c0-4.2-3.4-7.7-7.7-7.7s-7.7,3.4-7.7,7.7c0,4.2,3.4,7.7,7.7,7.7c1.2,0,2.3-0.3,3.3-0.7l90.2,139.9
		c-1.7,1.4-2.7,3.5-2.7,5.8c0,4.2,3.4,7.7,7.7,7.7c0.4,0,0.8,0,1.1-0.1l40.2,140.4c-2.7,1.2-4.6,3.9-4.6,7c0,0.8,0.1,1.6,0.3,2.3
		l-84.9,39.3c-1.4-2.1-3.7-3.6-6.5-3.6c-4.2,0-7.7,3.4-7.7,7.7c0,1.4,0.4,2.8,1.1,3.9l-103.6,82.4c-1.4-1.3-3.3-2.2-5.3-2.2
		c-4.2,0-7.7,3.4-7.7,7.7c0,0.5,0,0.9,0.1,1.3l-84.2,26.4c-1.2-2.6-3.9-4.4-6.9-4.4c-4.2,0-7.7,3.4-7.7,7.7c0,4.2,3.4,7.7,7.7,7.7
		c3.8,0,6.9-2.7,7.5-6.3l170.2,8.3c0.3,3.9,3.6,7,7.6,7c3.1,0,5.7-1.8,7-4.5l61,19c-0.1,0.4-0.1,0.9-0.1,1.3c0,4.2,3.3,7.5,7.4,7.7
		l8.6,84.9c-3.4,0.8-5.9,3.8-5.9,7.5c0,4.2,3.4,7.7,7.7,7.7c1.7,0,3.3-0.6,4.6-1.5l92.2,94.1c-1,1.3-1.6,2.9-1.6,4.7
		c0,3.4,2.2,6.2,5.2,7.3l-12.3,61.6c-0.2,0-0.3,0-0.5,0c-4.2,0-7.7,3.4-7.7,7.7c0,3.2,2,6,4.8,7.1l-24.4,95.3
		c-0.5-0.2-1-0.2-1.6-0.2c-3,0-5.4,2.4-5.4,5.4c0,0.5,0.1,1.1,0.2,1.6l-67.9,29.4c-1.3-2.2-3.8-3.7-6.6-3.7c-4.2,0-7.7,3.4-7.7,7.7
		c0,3.1,1.8,5.7,4.4,6.9l-22.3,68.9l-51.2-28c0.3-0.9,0.5-1.8,0.5-2.8c0-4.2-3.4-7.7-7.7-7.7c-4.2,0-7.7,3.4-7.7,7.7
		c0,0.8,0.1,1.5,0.3,2.2l-42.2,19.2c-1.4-2.2-3.8-3.6-6.5-3.6c-4.2,0-7.7,3.4-7.7,7.7c0,4.2,3.4,7.7,7.7,7.7c2.9,0,5.5-1.7,6.8-4.1
		l90.3,33.7c-0.1,0.6-0.2,1.1-0.2,1.7c0,0.4,0,0.8,0.1,1.2L976.7,1580c-1.1-2.4-3.3-4.1-6-4.5v-56.6c3.8-0.5,6.7-3.7,6.7-7.6
		c0-0.1,0-0.1,0-0.2l11-1.7c0.9,3.2,3.9,5.5,7.4,5.5c4.2,0,7.7-3.4,7.7-7.7c0-3.2-1.9-5.9-4.7-7.1l20.5-75.6
		c3.5-0.7,6.2-3.8,6.2-7.5c0-4.2-3.4-7.7-7.7-7.7c-3.4,0-6.2,2.2-7.2,5.2l-91-18.4c-0.3-2.7-2.6-4.8-5.4-4.8c-2,0-3.8,1.1-4.7,2.8
		l-35.5-7.2c0-0.2,0-0.3,0-0.5c0-2.7-1.4-5-3.4-6.4l21.3-43.4c0.8,0.3,1.6,0.4,2.5,0.4c4.2,0,7.7-3.4,7.7-7.7s-3.4-7.7-7.7-7.7
		c-4.2,0-7.6,3.4-7.7,7.6l-282.3,35.8c-0.9-3.3-3.8-5.7-7.4-5.7c-2.6,0-4.9,1.3-6.3,3.3l-83.7-43.8c0.3-0.8,0.5-1.7,0.5-2.6
		c0-4.2-3.4-7.7-7.7-7.7c-4.2,0-7.7,3.4-7.7,7.7c0,4.2,3.4,7.7,7.7,7.7c2.6,0,4.9-1.3,6.3-3.3l83.7,43.8c-0.3,0.8-0.5,1.7-0.5,2.6
		c0,4.2,3.4,7.7,7.7,7.7c4.2,0,7.6-3.4,7.7-7.6l282.3-35.8c0.5,1.8,1.6,3.4,3.2,4.4l-21.3,43.4c-0.8-0.3-1.6-0.4-2.5-0.4
		c-4.2,0-7.7,3.4-7.7,7.7c0,1.8,0.6,3.4,1.6,4.7l-104,106.3c-1.3-1-2.9-1.5-4.6-1.5c-4.2,0-7.7,3.4-7.7,7.7c0,1.3,0.3,2.6,0.9,3.7
		l-80.4,58.6c-1.4-1.5-3.4-2.4-5.5-2.4c-4.2,0-7.7,3.4-7.7,7.7c0,4.2,3.4,7.7,7.7,7.7c3.6,0,6.5-2.4,7.4-5.7l208.1,27.1l-43.2,74
		c-0.9-0.4-1.9-0.6-3-0.6c-3.8,0-6.9,2.7-7.5,6.3l-61.5-4c-0.3-4-3.6-7.2-7.6-7.2c-4.2,0-7.7,3.4-7.7,7.7c0,3.9,2.9,7.1,6.7,7.6
		v58.3c-3.8,0.5-6.7,3.7-6.7,7.6c0,2.2,0.9,4.1,2.3,5.5l-45.6,61c-1.1-0.6-2.4-1-3.7-1c-4.2,0-7.7,3.4-7.7,7.7c0,0.4,0,0.8,0.1,1.1
		l-104.1,29.8c-1.2-2.7-3.9-4.6-7-4.6c-4.2,0-7.7,3.4-7.7,7.7c0,4.2,3.4,7.7,7.7,7.7c0.1,0,0.3,0,0.4,0l8.3,45.1
		c-3.1,1-5.3,3.9-5.3,7.3c0,3.8,2.7,6.9,6.3,7.5l-7,154.8c-0.8,0.1-1.5,0.2-2.2,0.5l-59.9-105.8c1.9-1.4,3.1-3.6,3.1-6.1
		c0-4.2-3.4-7.7-7.7-7.7c-2.6,0-4.9,1.3-6.3,3.3l-83.9-43.9c0.3-0.8,0.5-1.7,0.5-2.6c0-4.2-3.4-7.7-7.7-7.7c-3.3,0-6,2-7.2,4.9
		l-135.2-32.5c0-0.3,0-0.5,0-0.8c0-4.2-3.4-7.7-7.7-7.7c-4.1,0-7.5,3.3-7.7,7.4l-178.3,17.3c-0.9-3.3-3.9-5.7-7.4-5.7
		c-2.5,0-4.8,1.2-6.2,3.1l-66-43.6l-1.1,1.7l66.1,43.7c-0.3,0.9-0.5,1.8-0.5,2.8c0,2.9,1.6,5.4,4,6.7l-20.2,46.3
		C49,1952.9,48.3,1952.8,47.6,1952.8z M887,1582.6l28.6-48.9c0.8,0.4,1.7,0.6,2.7,0.6l6.2,65.2c-1.7,0.4-3.2,1.4-4.3,2.7L887,1582.6
		z M919.2,1604C919.2,1604,919.1,1604,919.2,1604l-41.5-5.3l8.3-14.3L919.2,1604z M926.1,1525.4l36.6-11c1.1,2.4,3.3,4.1,6,4.5v56.6
		c-1.2,0.2-2.4,0.6-3.4,1.3l-41-45.2c1.1-1.3,1.8-3.1,1.8-5C926.2,1526.2,926.2,1525.8,926.1,1525.4z M963.9,1578.2
		c-1.1,1.3-1.8,3.1-1.8,5c0,1,0.2,1.9,0.5,2.8l-30.2,16.5c-1.3-1.8-3.5-3-5.9-3.1l-6.2-65.2c1-0.2,1.9-0.6,2.6-1.2L963.9,1578.2z
		 M920.7,1612.3c1.4,1.4,3.3,2.3,5.5,2.3c3,0,5.7-1.8,6.9-4.3l55.1,18.2c-0.1,0.5-0.1,0.9-0.1,1.4c0,0.5,0,0.9,0.1,1.4l-150,48.5
		l-2.4,0.1c-0.2-1.3-0.8-2.4-1.5-3.4L920.7,1612.3z M988.8,1633.3c1.2,2.6,3.9,4.4,6.9,4.4c1.7,0,3.3-0.6,4.6-1.5l31.6,32.7
		c-0.9,1.1-1.5,2.5-1.6,4l-184.8,6.7L988.8,1633.3z M1075.6,1708.7c-0.8,1.2-1.3,2.7-1.3,4.3c0,2.9,1.6,5.4,4,6.7l-20.6,53.6
		c-0.6-0.1-1.2-0.2-1.8-0.2c-0.1,0-0.2,0-0.3,0l-15.5-92.2c1-0.3,2-0.8,2.8-1.5L1075.6,1708.7z M1043.5,1668.4
		c-1.4-1.5-3.4-2.5-5.6-2.5c-1.7,0-3.3,0.6-4.6,1.5l-31.6-32.7c0.9-1.2,1.5-2.7,1.6-4.3l99.7-6.7c0.1,0.7,0.4,1.4,0.7,2.1
		L1043.5,1668.4z M1226,1644.7l-107.8-21.8c0-0.2,0-0.3,0-0.5c0-1.9-0.7-3.6-1.8-5l89.5-99.7c1.2,0.8,2.7,1.3,4.3,1.3
		c0.1,0,0.2,0,0.3,0l20.5,120.9C1228.6,1640.5,1226.8,1642.4,1226,1644.7z M1338.6,1738.1c-0.8,0.3-1.4,0.7-2,1.3l-97.1-87.8
		c0.9-1.2,1.4-2.7,1.4-4.4c0-4.2-3.4-7.7-7.7-7.7c-0.1,0-0.2,0-0.3,0l-20.5-120.9c0.2-0.1,0.3-0.1,0.5-0.2l23.4,43.2
		c-1.9,1.4-3.2,3.6-3.2,6.2c0,4.2,3.4,7.7,7.7,7.7c4.2,0,7.7-3.4,7.7-7.7c0-2.3-1-4.3-2.6-5.7l30.1-44c1,0.5,2.2,0.8,3.5,0.8
		c0.3,0,0.7,0,1-0.1L1338.6,1738.1z M1214.7,1517.5c1.7-1.2,2.8-3.1,3.1-5.2h54.1c0.2,1.9,1.2,3.5,2.5,4.7l-30.1,44
		c-1-0.5-2.2-0.8-3.5-0.8c-1,0-1.9,0.2-2.7,0.5L1214.7,1517.5z M1378.4,1337.2c-0.4-0.1-0.8-0.1-1.1-0.1c-0.3,0-0.7,0-1,0.1
		l-19.1-70.8c2.8-1.2,4.7-3.9,4.7-7.1c0-1.4-0.4-2.6-1-3.7l50.5-37.5c0.4,0.3,0.8,0.5,1.3,0.7L1378.4,1337.2z M1355.7,1014.8
		l28.7,85.1c-1.7,0.8-3.1,2.3-3.8,4.1l-32.8-7.9c-0.3-2.8-2.6-4.9-5.4-4.9c-0.1,0-0.2,0-0.3,0l-18.2-58.3l25-20.1
		c1.4,1.3,3.2,2.1,5.3,2.1C1354.7,1015,1355.2,1014.9,1355.7,1014.8z M1273.3,1073.8l49-39.5l17.9,57.5c-1,0.4-1.8,1.1-2.3,2
		l-63.5-15.2c0-0.3,0-0.5,0-0.8C1274.4,1076.4,1274,1075,1273.3,1073.8z M1347.7,1011.3l-24.4,19.6l-11-35.2l34.3,10.4
		c-0.1,0.4-0.1,0.8-0.1,1.2C1346.6,1008.8,1347,1010.1,1347.7,1011.3z M1298.3,928.3l97.2-31.5c0.4,0.6,0.9,1.1,1.5,1.5l-44.4,58.9
		c-0.7-0.4-1.5-0.6-2.4-0.6c-1.7,0-3.2,0.8-4.2,2l-48.1-26.2c0.3-0.9,0.5-1.8,0.5-2.7C1298.4,929.2,1298.3,928.7,1298.3,928.3z
		 M1296.9,934.2l48.1,26.2c-0.2,0.5-0.3,1.1-0.3,1.7c0,2.8,2.1,5.1,4.9,5.4l2.9,32.5c-0.9,0.2-1.6,0.5-2.4,1l-53.9-65.9
		C1296.5,934.7,1296.7,934.4,1296.9,934.2z M1294.8,936.2l53.9,65.9c-0.6,0.6-1.1,1.3-1.4,2.1l-35.6-10.8l-17.7-56.8
		C1294.2,936.5,1294.5,936.3,1294.8,936.2z M1309.3,992.7l-22.4-6.8c0-0.2,0-0.3,0-0.5c0-2.3-1.4-4.3-3.5-5.1l7-43.1
		c0.1,0,0.2,0,0.2,0c0.4,0,0.9,0,1.3-0.1L1309.3,992.7z M1261.8,972.2l25.4-35.8c0.4,0.2,0.9,0.4,1.4,0.6l-7,43.1
		c-2,0-3.8,1.1-4.7,2.8l-12.7-3.8c0.1-0.4,0.1-0.8,0.1-1.2C1264.2,975.6,1263.3,973.6,1261.8,972.2z M1285.5,935.3l-25.4,35.8
		c-0.2-0.1-0.5-0.2-0.7-0.3l11.8-45.6c0.1,0,0.3,0,0.4,0c1.7,0,3.3-0.8,4.3-2.1l7.6,4c-0.3,0.8-0.5,1.7-0.5,2.6
		C1283.1,931.9,1284,933.9,1285.5,935.3z M1290.6,922c-2.5,0-4.8,1.3-6.2,3.3l-7.6-4c0.1-0.5,0.2-1,0.2-1.5c0-2.2-1.3-4.1-3.2-4.9
		l32-123.6L1290.6,922z M1394.7,744.8l-79.4,28.5c-1-1.9-2.7-3.3-4.8-3.9l8.7-67.6c2.4,0,4.6-1.2,6-2.9l69.9,41.3
		c-0.4,0.9-0.6,1.9-0.6,3C1394.6,743.7,1394.6,744.2,1394.7,744.8z M1396.2,738.4l-69.9-41.3c0.4-0.9,0.6-1.9,0.6-3
		c0-3.4-2.3-6.4-5.4-7.3l9.1-54c0.1,0,0.2,0,0.3,0c1.1,0,2.1-0.2,3.1-0.6l63.5,105C1397,737.5,1396.6,738,1396.2,738.4z M1321,542.5
		l-11.4,15.5l-8.4-25.3c1.3-0.6,2.3-1.5,3.1-2.7l15.5,7.4c-0.1,0.5-0.2,1-0.2,1.5C1319.6,540.3,1320.2,541.6,1321,542.5z
		 M1327.5,618.3c-2.2,1-3.8,3.1-4.2,5.5l-51.5-2.6c-0.2-1.9-1-3.7-2.3-4.9l39.5-53.9L1327.5,618.3z M1310.4,560.4l12.2-16.6
		c0.7,0.4,1.6,0.6,2.5,0.6c1.8,0,3.4-0.9,4.4-2.3l33.5,16c-0.2,0.8-0.4,1.5-0.4,2.4c0,4.2,3.4,7.7,7.7,7.7c0.3,0,0.6,0,0.9-0.1
		l18,72.5c-2.1,1.1-3.7,3.1-4.1,5.5l-46.7-19.1c0.2-0.6,0.3-1.3,0.3-1.9c0-4.2-3.4-7.7-7.7-7.7c-0.5,0-1,0.1-1.4,0.1L1310.4,560.4z
		 M1399.1,736.1l-63.5-105c0.8-0.6,1.4-1.3,1.9-2.2l47.4,19.3c0.4,3.8,3.5,6.7,7.4,6.9l8.1,80.6
		C1400,735.8,1399.6,735.9,1399.1,736.1z M1425.1,693.7l-20.4,42.2c-0.7-0.2-1.4-0.4-2.2-0.4l-8.1-80.6c1.2-0.3,2.2-0.8,3.1-1.5
		L1425.1,693.7z M1397.2,641.4c-1.3-1-2.9-1.6-4.6-1.6c-0.5,0-1,0.1-1.5,0.2l-18-72.4c1.4-0.6,2.7-1.6,3.5-2.8l46.1,23.2
		c-0.3,0.8-0.4,1.6-0.4,2.5c0,2.4,1.1,4.5,2.8,5.9L1397.2,641.4z M1428.5,582.9c-0.5,0.1-1.1,0.2-1.6,0.4l-55.1-96.2
		c1.6-1.2,2.7-3,3-5.1h44.2c0.1,2.8,2.3,5.1,5.1,5.3L1428.5,582.9z M1421.6,429.7l2.1,46.9c-2,0.3-3.6,1.7-4.3,3.5h-44.6
		c-0.2-1.5-0.8-2.8-1.7-3.9l44.6-47.9C1418.9,429.1,1420.2,429.6,1421.6,429.7z M1386.8,381.5c0.1,0,0.3,0,0.4,0
		c1.3,0,2.6-0.3,3.7-0.9l26.1,35.9c-1.5,1.4-2.4,3.4-2.4,5.6c0,1.9,0.7,3.6,1.8,4.9l-44.6,47.9c-0.6-0.4-1.3-0.8-2.1-1L1386.8,381.5
		z M1370.1,488.2l55.1,96.2c-0.7,0.5-1.2,1.1-1.7,1.8l-46.1-23.2c0.3-0.8,0.4-1.6,0.4-2.5c0-4-3.1-7.3-7-7.6l-2.4-64.2
		C1369.1,488.5,1369.6,488.4,1370.1,488.2z M1366.5,488.7l2.4,64.2c-2.1,0.4-4,1.6-5.1,3.4l-33.5-16.1c0.1-0.4,0.2-0.9,0.2-1.3
		c0-1.5-0.6-2.8-1.6-3.8l34.6-47.3C1364.4,488.3,1365.4,488.6,1366.5,488.7z M1361.9,486.6l-34.7,47.4c-0.7-0.3-1.4-0.5-2.2-0.5
		c-1.8,0-3.3,0.9-4.3,2.2l-15.6-7.5c0.2-0.8,0.4-1.5,0.4-2.4c0-1.2-0.3-2.3-0.7-3.3l56.6-36.5
		C1361.6,486.2,1361.7,486.4,1361.9,486.6z M1261.1,483.7l98.6-1.5c0.1,0.8,0.3,1.5,0.7,2.2l-56.6,36.5c-1.4-1.7-3.5-2.7-5.8-2.7
		c-1.8,0-3.5,0.6-4.8,1.7l-33.5-32.4C1260.4,486.3,1260.9,485.1,1261.1,483.7z M1245.8,482.6c0,0.1,0,0.1,0,0.2
		c0,4.2,3.4,7.7,7.7,7.7c1.8,0,3.5-0.6,4.8-1.7l33.5,32.4c-0.2,0.2-0.3,0.4-0.4,0.6l-117.8-50.5L1245.8,482.6z M1264.2,614.1
		c-1.2,0-2.3,0.3-3.3,0.7L1170.8,475c0.6-0.5,1.2-1.2,1.6-1.9l118.1,50.7c-0.2,0.7-0.3,1.4-0.3,2.1c0,4.2,3.4,7.7,7.7,7.7
		c0.5,0,1-0.1,1.4-0.1l8.9,26.7l-40.3,55.1C1266.8,614.5,1265.6,614.1,1264.2,614.1z M1267.3,628.8c2.3-1,4-3.1,4.5-5.7l51.5,2.6
		c0.3,3.2,2.4,5.8,5.4,6.7l-9.1,54c-0.1,0-0.2,0-0.3,0c-4.2,0-7.7,3.4-7.7,7.7c0,3.6,2.4,6.5,5.7,7.4l-8.7,67.6
		c-0.4,0-0.7,0-1.1,0.1L1267.3,628.8z M1305.7,783.9l-33.7,130.4c-0.1,0-0.2,0-0.3,0c-1.7,0-3.2,0.8-4.2,2l-42.7-22.3
		c0.3-0.8,0.5-1.7,0.5-2.6c0-2.1-0.8-3.9-2.2-5.3l81.6-102.8C1305,783.6,1305.3,783.8,1305.7,783.9z M1217.6,822.5
		c0-0.8-0.1-1.6-0.3-2.3l84.9-39.3c0.3,0.4,0.6,0.9,1,1.2l-81.6,102.8c-1.1-0.7-2.4-1.1-3.8-1.1l-6-53.9
		C1215.1,829.1,1217.6,826.1,1217.6,822.5z M1204.6,828c1.3,1.3,3.2,2.1,5.2,2.1l6,53.9c-3.3,0.8-5.8,3.8-5.8,7.4c0,0.1,0,0.3,0,0.4
		l-108.2,20.1c-0.2-0.6-0.4-1.1-0.7-1.6L1204.6,828z M1173.5,952.9l-170.2-8.3c0-0.2-0.1-0.5-0.1-0.7l84.2-26.4
		c1.2,2.6,3.9,4.4,6.9,4.4c2.7,0,5.1-1.4,6.5-3.6l72.9,33.6C1173.6,952.3,1173.6,952.6,1173.5,952.9z M1181.1,946.6
		c-2.7,0-5.1,1.4-6.5,3.6l-72.9-33.6c0.2-0.7,0.3-1.5,0.3-2.3c0-0.1,0-0.3,0-0.4l108.2-20.1c0.5,1.5,1.4,2.8,2.6,3.7l-28.9,49.7
		C1183.1,946.9,1182.1,946.6,1181.1,946.6z M1249.6,974.6l-61-19c0.1-0.4,0.1-0.9,0.1-1.3c0-2.5-1.2-4.7-3-6.1l28.9-49.7
		c0.9,0.4,1.9,0.6,3,0.6c0.8,0,1.5-0.1,2.2-0.3l32.7,72.5C1251.2,972.1,1250.2,973.2,1249.6,974.6z M1256.6,970.1
		c-0.8,0-1.5,0.1-2.2,0.3l-32.7-72.5c0.9-0.5,1.6-1.3,2.2-2.1l42.6,22.2c-0.2,0.5-0.2,1.1-0.2,1.6c0,2.1,1.3,4,3.1,4.9l-11.8,45.6
		C1257.2,970.2,1256.9,970.1,1256.6,970.1z M1258.3,985.3c2.3-0.6,4.3-2.2,5.2-4.3l12.6,3.8c0,0.2,0,0.5,0,0.7
		c0,2.4,1.6,4.4,3.7,5.1l-12.9,79.5L1258.3,985.3z M1268.9,1070.5l12.9-79.6c2-0.1,3.8-1.3,4.6-3l23.6,7.1l11.6,37.3l-49.6,40
		C1271.1,1071.4,1270.1,1070.8,1268.9,1070.5z M1365,1176.7l-92.2-94.1c0.5-0.6,0.8-1.3,1.1-2l63.2,15.1c-0.1,0.3-0.1,0.7-0.1,1
		c0,3,2.4,5.4,5.4,5.4c0.3,0,0.7,0,1-0.1l23,73.8C1365.8,1176.1,1365.4,1176.4,1365,1176.7z M1345.2,1101.4c1.1-0.7,2-1.8,2.4-3.1
		l32.5,7.8c0,0.3,0,0.5,0,0.8c0,3.3,2,6.1,4.9,7.2l-14.6,61.2c-0.3,0-0.5,0-0.8,0c-0.4,0-0.9,0-1.3,0.1L1345.2,1101.4z M1369,1190.5
		c0.2,0,0.3,0,0.5,0c4.2,0,7.7-3.4,7.7-7.7c0-3.3-2-6.1-4.9-7.2l14.6-61.2c0.3,0,0.5,0,0.8,0c0.3,0,0.7,0,1-0.1l24.1,90.3
		c-2.8,1.1-4.7,3.9-4.7,7.1c0,1.9,0.7,3.6,1.8,5l-50.1,37.2c-0.8-0.9-1.9-1.5-3-1.9L1369,1190.5z M1353.3,1266.9
		c0.3,0,0.6,0.1,0.9,0.1c0.3,0,0.7,0,1-0.1l19.1,70.8c-2.8,1.2-4.7,3.9-4.7,7.1c0,0.7,0.1,1.4,0.3,2.1l-39.8,17.2
		c-0.3-0.6-0.8-1.1-1.3-1.5L1353.3,1266.9z M1326.3,1372.2c2.5-0.4,4.5-2.7,4.5-5.3c0-0.3,0-0.6-0.1-0.8l39.9-17.3
		c0.1,0.2,0.3,0.4,0.4,0.6l-48.5,46.5c-0.6-0.5-1.2-0.9-1.9-1.1L1326.3,1372.2z M1321.1,1370.2c0.8,1,1.9,1.7,3.2,2l-5.6,22
		c-0.3,0-0.6-0.1-0.9-0.1c-3.9,0-7.1,2.9-7.6,6.7h-56.8c0-0.4-0.1-0.7-0.2-1.1L1321.1,1370.2z M1253.3,1402.8h56.8
		c0.3,2.6,1.9,4.7,4.1,5.8l-33.2,95.1c-0.5-0.1-1-0.2-1.6-0.2c-0.4,0-0.9,0-1.3,0.1l-29.3-95
		C1251.3,1407.7,1253,1405.5,1253.3,1402.8z M1244.3,1409.3c0.5,0.1,0.9,0.1,1.4,0.1c0.4,0,0.9,0,1.3-0.1l29.3,95
		c-1.2,0.5-2.2,1.4-3,2.4l-51.5-28.2L1244.3,1409.3z M1221.2,1480.5l51.2,28c-0.2,0.6-0.4,1.2-0.5,1.8h-54.1c-0.3-2.6-2-4.8-4.3-5.9
		L1221.2,1480.5z M1113.2,1474c0.1-0.6,0.2-1.1,0.2-1.7c0-0.8-0.1-1.5-0.3-2.2l42.2-19.2c1.4,2.2,3.8,3.6,6.5,3.6
		c2.5,0,4.8-1.2,6.2-3.1l51.6,28.2l-7.9,24.2c-0.5-0.1-0.9-0.1-1.4-0.1c-2.9,0-5.5,1.7-6.8,4.1L1113.2,1474z M1204.1,1515.9
		c0.1,0.1,0.2,0.3,0.3,0.4l-89.5,99.7c-1.2-0.8-2.7-1.3-4.3-1.3c-4.1,0-7.4,3.2-7.6,7.2l-99.7,6.7c-0.1-0.4-0.2-0.9-0.4-1.3
		L1204.1,1515.9z M977.4,1583.1c0-0.4,0-0.8-0.1-1.2l224.3-67l-199.8,110.5c-1.4-1.9-3.6-3.1-6.2-3.1c-3,0-5.7,1.8-6.9,4.3
		l-55.1-18.2c0.1-0.5,0.1-0.9,0.1-1.4c0,0,0,0,0,0l0.1-1l-0.2,0c-0.1-0.6-0.2-1.2-0.4-1.8l30.2-16.5c1.4,1.9,3.6,3.1,6.2,3.1
		C974,1590.8,977.4,1587.4,977.4,1583.1z M988.1,1507.3c0,0.1,0,0.1,0,0.2l-11,1.7c-0.9-3.2-3.9-5.5-7.4-5.5c-0.8,0-1.6,0.1-2.4,0.4
		l-47.6-98.5l70.7,96.3C989,1503.2,988.1,1505.1,988.1,1507.3z M919.3,1398.2l90.8,18.4c0,0.2,0,0.3,0,0.5c0,4,3.1,7.3,7.1,7.6
		l-20.4,74.9c-0.3,0-0.7-0.1-1-0.1c-1.3,0-2.6,0.3-3.7,0.9l-73.7-100.4C918.8,1399.6,919.1,1399,919.3,1398.2z M915.8,1402
		l49.7,102.9c-2.1,1.4-3.5,3.7-3.5,6.4c0,0.4,0,0.8,0.1,1.2l-36.6,11c-1.1-2.5-3.5-4.2-6.3-4.5l-4-116.9
		C915.4,1402.1,915.6,1402,915.8,1402z M873.5,1389l35.2,7.1c0,0.2-0.1,0.5-0.1,0.7c0,2.7,2,5,4.6,5.4l4,116.9
		c-0.2,0-0.3,0.1-0.5,0.1l-47-125.9C871.5,1392.3,872.8,1390.8,873.5,1389z M861.6,1392.6c1.3,1,2.9,1.5,4.6,1.5
		c0.6,0,1.2-0.1,1.7-0.2l47,125.9c-2.4,1.3-4.1,3.8-4.1,6.8c0,2.5,1.2,4.7,3,6.1l-28.6,48.9l-126.7-75c0.4-0.9,0.6-1.9,0.6-3
		c0-1.8-0.6-3.4-1.6-4.7L861.6,1392.6z M666.6,1571.1c0-1.3-0.3-2.6-0.9-3.7l80.4-58.6c1.4,1.5,3.4,2.4,5.5,2.4c2.4,0,4.6-1.2,6-2.9
		l126.7,75l-8.8,15L666.6,1571.1z M876.6,1600.5l42.1,5.5c0,0.3-0.1,0.6-0.1,1c0,1.4,0.4,2.6,1,3.7l-86.4,64.3L876.6,1600.5z
		 M828.2,1689c3.7,0,6.8-2.7,7.5-6.2l2.8-0.9l191.8-6.9c0.1,0.6,0.3,1.2,0.5,1.8l-232.7,141.6c-0.8-1-2-1.9-3.2-2.3l30.6-127.5
		C826.4,1688.8,827.3,1689,828.2,1689z M752.6,1684.1c3.3-0.4,5.9-2.9,6.5-6.1l61.5,4c0.1,0.9,0.3,1.8,0.7,2.6l-64.8,59.6
		c-1.1-0.9-2.4-1.5-3.9-1.7V1684.1z M747.8,1756.7c1.1,0.6,2.4,1,3.7,1c4.2,0,7.7-3.4,7.7-7.7c0-1.6-0.5-3.2-1.4-4.4l64.5-59.3
		c0.4,0.5,0.9,0.9,1.4,1.3l-30.7,128c-0.3,0-0.5,0-0.8,0c-3.9,0-7.1,2.9-7.6,6.7h-80.1c-0.2-1.8-1-3.3-2.2-4.5L747.8,1756.7z
		 M617.1,1998.7l48.2,44.7c-0.9,1.3-1.4,2.8-1.4,4.4c0,0.7,0.1,1.5,0.3,2.1l-76.1,33.2c-0.8-1.3-1.9-2.3-3.3-3l26-79.9
		c0.5,0.1,0.9,0.1,1.4,0.1C614.1,2000.5,615.8,1999.8,617.1,1998.7z M614.5,1985.5c-0.7-0.2-1.5-0.4-2.3-0.4c-0.4,0-0.8,0-1.3,0.1
		l-18.6-61.1c2.7-1.2,4.5-3.9,4.5-7c0-0.5-0.1-1.1-0.2-1.6l55.3-19.6c0.6,1.2,1.6,2.3,2.7,3L614.5,1985.5z M585.8,1856l104.1-29.8
		c0.5,1.3,1.4,2.3,2.5,3.1l-30.7,56c-0.9-0.3-1.8-0.5-2.8-0.5c-2.8,0-5.2,1.5-6.6,3.7l-66.8-29.2c0.2-0.7,0.3-1.4,0.3-2.1
		C585.9,1856.8,585.8,1856.4,585.8,1856z M580.6,1864.4c1.8-0.6,3.3-1.8,4.2-3.3l66.8,29.2c-0.2,0.7-0.3,1.4-0.3,2.1
		c0,0.5,0.1,1.1,0.2,1.6l-55.3,19.6c-1.3-2.5-3.8-4.2-6.8-4.2c-0.1,0-0.3,0-0.4,0L580.6,1864.4z M589.9,1924.8c0.2,0,0.4,0,0.6-0.1
		l18.6,61.1c-2.7,1.2-4.5,3.9-4.5,7c0,3.1,1.8,5.7,4.4,6.9l-26,79.9c0,0,0,0-0.1,0L589.9,1924.8z M148,2167.1l-79.3-90.3
		c1.2-1.3,1.9-3.1,1.9-5c0-2.8-1.5-5.3-3.8-6.6l17.5-42c0.6,0.2,1.3,0.3,2,0.3c0.7,0,1.4-0.1,2-0.3l60.1,143.7
		C148.2,2166.9,148.1,2167,148,2167.1z M55.1,1959.4l114-31.6c0.7,1.7,2.1,3.1,3.8,3.9l-19.4,61.2c-0.4-0.1-0.9-0.1-1.3-0.1
		c-2.9,0-5.4,1.6-6.7,4L55,1962.3c0.1-0.6,0.2-1.2,0.2-1.8C55.2,1960.1,55.2,1959.8,55.1,1959.4z M442.2,2030.2
		c-0.2,0.7-0.3,1.5-0.3,2.3c0,2.8,1.5,5.2,3.7,6.5l-25,56.8c-1.1-0.6-2.4-1-3.7-1c-2.8,0-5.2,1.5-6.5,3.6l-39.1-17.5
		c1.2-1.4,2-3.2,2-5.1c0-1.3-0.3-2.6-0.9-3.6l62.6-45.3L442.2,2030.2z M436.8,2025.5l8.1-5.9l1.7,5.8c-1.4,0.6-2.6,1.7-3.4,3
		L436.8,2025.5z M470.5,2146.7l-33.2,28.7c-1.4-1.2-3.1-1.9-5.1-1.9c-0.2,0-0.3,0-0.5,0l-12.4-63.8c1.9-0.6,3.5-2,4.4-3.8l46.4,33
		c-0.6,1.1-0.9,2.3-0.9,3.6C469.2,2144,469.7,2145.5,470.5,2146.7z M253.5,2047.8C253.5,2047.8,253.5,2047.8,253.5,2047.8
		c1.3,0,2.5-0.3,3.6-0.9l52,74.5c-1.5,1.4-2.5,3.4-2.5,5.7c0,1.3,0.3,2.5,0.9,3.5l-67,47c-1-1.9-2.7-3.3-4.8-3.9L253.5,2047.8z
		 M233.6,2173.5C233.6,2173.5,233.6,2173.5,233.6,2173.5c-3.7,0-6.8,2.5-7.5,6l-66.2-6.2c-0.1-2-0.9-3.8-2.3-5.2l92.1-121.2
		c0.5,0.3,1.1,0.6,1.7,0.7L233.6,2173.5z M359.5,2080.5l-40.6,40.6c-1.3-1-2.9-1.6-4.7-1.6c-1.3,0-2.5,0.3-3.5,0.9l-52-74.5
		c0.7-0.7,1.3-1.5,1.8-2.4l97.5,31.1c-0.1,0.4-0.1,0.9-0.1,1.4C357.9,2077.6,358.5,2079.2,359.5,2080.5z M308.6,2132.3
		c1.4,1.5,3.4,2.5,5.6,2.5c2.7,0,5.1-1.4,6.5-3.6l104.2,47.7c-0.1,0.4-0.2,0.8-0.3,1.3H241.1c0-0.2,0-0.3-0.1-0.5L308.6,2132.3z
		 M321.5,2129.4c0.2-0.7,0.3-1.5,0.3-2.3c0-1.8-0.6-3.4-1.6-4.7l40.6-40.6c1.3,1,2.9,1.6,4.7,1.6c0.5,0,0.9,0,1.3-0.1l60.3,92
		c-0.6,0.5-1.1,1.1-1.5,1.7L321.5,2129.4z M368.9,2082.7c0.2-0.1,0.4-0.2,0.7-0.4l40,17.9c-0.2,0.7-0.3,1.4-0.3,2.2
		c0,4.2,3.4,7.7,7.7,7.7c0.2,0,0.3,0,0.5,0l12.4,63.8c-0.3,0.1-0.6,0.2-0.9,0.4L368.9,2082.7z M371.1,2070.5
		c-1.4-1.5-3.4-2.4-5.6-2.4c-0.2,0-0.4,0-0.6,0l-15.6-75.8c1.7-0.6,3-1.7,4-3.1l79.5,36.6L371.1,2070.5z M363,2068.6
		c-2,0.7-3.5,2.1-4.4,4l-97.5-31.1c0.1-0.4,0.1-0.9,0.1-1.4c0-1.1-0.2-2.1-0.6-3l80.2-47.3c1.4,1.8,3.6,2.9,6,2.9c0.2,0,0.4,0,0.6,0
		L363,2068.6z M259.6,2035.4c-1.4-1.8-3.6-2.9-6-2.9c-2.9,0-5.4,1.6-6.7,4l-87.2-34.1c0.1-0.5,0.2-0.9,0.2-1.4l179.5-14.1
		c0.1,0.5,0.3,1,0.4,1.4L259.6,2035.4z M245.1,2037.9l-151.2-22c0,0,0-0.1,0-0.1c0-0.3,0-0.5,0-0.7l51.2-11.9c1.1,2.9,3.9,5,7.2,5
		c2.9,0,5.4-1.6,6.7-4L245.1,2037.9z M144.8,1998.7c-0.1,0.6-0.2,1.2-0.2,1.8c0,0.3,0,0.5,0,0.7l-51.2,11.9c-1.1-2.9-3.9-5-7.2-5
		c-1.3,0-2.5,0.3-3.5,0.9l-30-42.9c0.6-0.6,1.2-1.2,1.6-2L144.8,1998.7z M150.2,2166.1l-60.1-143.7c1.7-1,3-2.6,3.5-4.5l152.3,22.1
		c0,0,0,0.1,0,0.1c0,2.1,0.9,4.1,2.3,5.4L156,2166.8c-1.1-0.6-2.4-1-3.8-1C151.5,2165.8,150.9,2165.9,150.2,2166.1z M153.7,2181
		c3-0.6,5.3-2.9,6-5.8l66.2,6.2c0,1,0.3,2,0.7,2.9l-64.4,40c-1.4-1.7-3.4-2.7-5.7-2.8L153.7,2181z M190.6,2270.5
		c0,0.8,0.1,1.5,0.3,2.2l-23.7,10.7c-1-3-3.7-5.1-6.9-5.3l-2.8-41.5c1.3-0.2,2.5-0.7,3.5-1.5l31.2,30.7
		C191.1,2267.2,190.6,2268.7,190.6,2270.5z M198.2,2262.8c-1.8,0-3.4,0.6-4.7,1.6l-31.2-30.7c1-1.3,1.6-2.9,1.6-4.6
		c0-1.1-0.2-2.2-0.7-3.2l64.4-40c0.6,0.7,1.4,1.4,2.2,1.8l-29.7,75.2C199.5,2262.9,198.9,2262.8,198.2,2262.8z M205,2266.8
		c-0.7-1.3-1.7-2.3-3-3.1l29.7-75.2c0.6,0.1,1.2,0.2,1.9,0.2c3.9,0,7.1-2.9,7.6-6.7h183.5c0,0.3,0.1,0.5,0.1,0.8L205,2266.8z
		 M416.9,2234.1c-4.1,0-7.5,3.3-7.7,7.4l-202.7,26.8l218.9-83.6c0.9,1.6,2.2,2.8,3.9,3.5l-11.6,45.9
		C417.5,2234.2,417.2,2234.1,416.9,2234.1z M419.7,2234.7l11.6-45.9c0.3,0,0.6,0.1,0.9,0.1c1.3,0,2.6-0.3,3.7-0.9l6.8,9.3
		l-22.7,37.6C419.9,2234.8,419.8,2234.7,419.7,2234.7z M459.6,2220.3c-1.5,1.4-2.4,3.4-2.4,5.5c0,0.5,0.1,1,0.1,1.5l-33.6,11.2
		c-0.5-1-1.2-1.9-2.1-2.6l22.3-36.9L459.6,2220.3z M443.8,2195.3l-6.3-8.6c1.5-1.4,2.4-3.4,2.4-5.5c0-1.6-0.5-3-1.3-4.2l33.2-28.7
		c0.1,0.1,0.2,0.2,0.3,0.3L443.8,2195.3z M471.3,2137.3l-46.9-33.3c0.1-0.5,0.1-1,0.1-1.5c0-2.1-0.9-4.1-2.3-5.5l25.1-57.2
		c0.7,0.2,1.4,0.3,2.1,0.3c0.3,0,0.6,0,0.9-0.1l23.7,95.3C473,2135.8,472.1,2136.4,471.3,2137.3z M446.6,2018.4l57.9-41.9l-50.2,50
		c-1.3-1-2.9-1.6-4.7-1.6c-0.4,0-0.7,0-1.1,0.1L446.6,2018.4z M483.1,2138c-1.4-2-3.7-3.2-6.2-3.2c-0.3,0-0.6,0-0.9,0.1l-23.7-95.3
		c1.6-0.6,3-1.8,3.8-3.3l118,48.9c-0.2,0.6-0.3,1.3-0.3,2c0,0.9,0.2,1.8,0.5,2.7L483.1,2138z M509.5,1974.2c1.3,1,2.9,1.6,4.7,1.6
		c1,0,2-0.2,2.9-0.6l59.9,105.8c-0.8,0.6-1.5,1.4-2,2.3l-118-48.9c0.2-0.6,0.3-1.3,0.3-2c0-1.7-0.6-3.4-1.6-4.6L509.5,1974.2z
		 M423.1,1921.6l83.9,44c-0.3,0.8-0.5,1.7-0.5,2.6c0,1.3,0.3,2.6,0.9,3.6l-61.5,44.5l-26.1-92.1
		C421.2,1923.6,422.3,1922.7,423.1,1921.6z M412.1,1923.2c1.3,1,3,1.7,4.8,1.7c0.4,0,0.7,0,1.1-0.1l26.3,92.8l-9.6,7l-80.5-37.1
		c0.2-0.7,0.3-1.5,0.3-2.3c0-1.7-0.6-3.3-1.5-4.6L412.1,1923.2z M274,1883.9l135.2,32.5c0,0.3,0,0.5,0,0.8c0,1.7,0.6,3.3,1.5,4.6
		l-59.1,57.4c-1.3-1-3-1.7-4.8-1.7c-1.4,0-2.7,0.4-3.8,1l-70.7-92C273.1,1885.8,273.6,1884.9,274,1883.9z M262.3,1887.3
		c1.3,0.9,2.8,1.5,4.5,1.5c1.4,0,2.7-0.4,3.8-1l70.7,92c-1.3,1.3-2.1,3.1-2.2,5l-179.5,14.1c-0.3-1.2-0.8-2.3-1.5-3.2L262.3,1887.3z
		 M260.9,1885.9l-104.1,108.4c-0.4-0.3-0.8-0.6-1.3-0.8l19.4-61.2c0.4,0.1,0.9,0.1,1.3,0.1c4.2,0,7.7-3.4,7.7-7.7
		c0-0.8-0.1-1.6-0.4-2.4l77-37.1C260.6,1885.5,260.7,1885.7,260.9,1885.9z M81.2,1900.1l178.2-17.2c0.1,0.2,0.1,0.5,0.2,0.7
		l-77,37.1c-1.4-2.1-3.7-3.5-6.4-3.5c-3.3,0-6.1,2.1-7.2,5l-88-20.5C81.2,1901.1,81.2,1900.6,81.2,1900.1
		C81.2,1900.1,81.2,1900.1,81.2,1900.1z M71.7,1907.6c0.6,0.1,1.2,0.2,1.8,0.2c3,0,5.7-1.8,6.9-4.3l88.1,20.6c0,0.2,0,0.5,0,0.8
		c0,0.4,0,0.7,0.1,1.1l-114,31.6c-0.6-1.5-1.7-2.7-3.1-3.6L71.7,1907.6z M81.1,2010.2c-1.5,1.4-2.5,3.4-2.5,5.7
		c0,2.8,1.5,5.3,3.8,6.6l-17.5,42c-0.6-0.2-1.3-0.3-2-0.3c0,0,0,0,0,0l-13.3-96.3c0.5-0.1,1-0.3,1.5-0.6L81.1,2010.2z"/>
	<path d="M1377.3,2897.3l62.5,30l0.9-1.8l-62.5-30c0.2-0.8,0.4-1.6,0.4-2.4c0-4.2-3.4-7.7-7.7-7.7c-3.9,0-7.1,2.9-7.6,6.7h-88.1
		c-0.5-3.8-3.7-6.7-7.6-6.7c-0.7,0-1.4,0.1-2.1,0.3l-79.7-74.8c0.9-1.3,1.4-2.8,1.4-4.5c0-4.2-3.4-7.7-7.7-7.7
		c-3.5,0-6.5,2.4-7.4,5.6l-91-13.2c0,0,0-0.1,0-0.1c0-4.2-3.4-7.7-7.7-7.7s-7.7,3.4-7.7,7.7c0,0.4,0,0.8,0.1,1.3l-106.1,32.3
		c-1.2-2.7-3.9-4.5-7-4.5c-4.2,0-7.7,3.4-7.7,7.7c0,4.2,3.4,7.7,7.7,7.7c1.3,0,2.5-0.3,3.6-0.9l46.5,65.6c-1.5,1.4-2.5,3.4-2.5,5.6
		c0,3.5,2.3,6.4,5.5,7.4l-13,84.3c-0.1,0-0.1,0-0.2,0c-4.2,0-7.7,3.4-7.7,7.7s3.4,7.7,7.7,7.7c3.1,0,5.8-1.9,7-4.5l74.3,22.4
		c1.1,2.8,3.9,4.8,7.1,4.8c2.2,0,4.1-0.9,5.5-2.3l101.5,75.6c-0.4,0.8-0.7,1.6-0.9,2.5l-59.8-2.1c-0.4-3.9-3.6-6.9-7.6-6.9
		c-4.2,0-7.7,3.4-7.7,7.7c0,4.2,3.4,7.7,7.7,7.7c1.7,0,3.3-0.6,4.6-1.5l41.8,42.7c-1.3,1.4-2,3.2-2,5.2c0,0.3,0,0.5,0,0.8
		l-64.2,15.2c-1.1-2.9-3.9-4.9-7.2-4.9c-4.2,0-7.7,3.4-7.7,7.7s3.4,7.7,7.7,7.7c2.1,0,4-0.8,5.4-2.2l24.6,19.1c-1.8,1.4-3,3.6-3,6.1
		c0,1.7,0.5,3.2,1.5,4.5l-39,36.9c-1.3-1.1-3-1.7-4.8-1.7c-4.2,0-7.7,3.4-7.7,7.7c0,1,0.2,1.9,0.5,2.8l-103.7,57.6
		c-1.4-1.9-3.6-3.1-6.2-3.1c-4.2,0-7.7,3.4-7.7,7.7c0,1.3,0.3,2.5,0.9,3.5l-40.9,28.6c-1.4-1.5-3.4-2.5-5.6-2.5
		c-4.2,0-7.7,3.4-7.7,7.7c0,1.6,0.5,3.1,1.4,4.4l-139.8,127.4c-1.3-1.1-3.1-1.8-4.9-1.8c-2.1,0-4,0.8-5.3,2.2l-182.1-143.6
		c0.7-1.1,1.1-2.5,1.1-3.9c0-4.2-3.4-7.7-7.7-7.7c-2.1,0-4,0.9-5.4,2.3l-82.9-16.1c0-0.2,0-0.3,0-0.5c0-4.2-3.4-7.7-7.7-7.7
		c-1.4,0-2.7,0.4-3.8,1l-30.8-40.9c1.4-1.4,2.3-3.3,2.3-5.5c0-4.2-3.4-7.7-7.7-7.7c-3.3,0-6,2-7.1,4.9l-153.2-37.1
		c0-0.3,0-0.5,0-0.8c0-4.2-3.4-7.7-7.7-7.7s-7.7,3.4-7.7,7.7c0,4.2,3.4,7.7,7.7,7.7c3.3,0,6-2,7.1-4.9l153.2,37.1c0,0.3,0,0.5,0,0.8
		c0,0,0,0.1,0,0.1l-114.3,16.5c-0.9-3.2-3.9-5.6-7.4-5.6c-4.2,0-7.7,3.4-7.7,7.7s3.4,7.7,7.7,7.7c0.3,0,0.6,0,0.8,0l26.4,107.9
		c-2.9,1.1-4.9,3.9-4.9,7.1c0,4.2,3.4,7.7,7.7,7.7s7.7-3.4,7.7-7.7c0-0.5,0-0.9-0.1-1.4l57.2-18.6c0.1,1.3,0.4,2.5,1,3.5l-151,116.4
		c-1.4-1.4-3.3-2.2-5.4-2.2c-4.2,0-7.7,3.4-7.7,7.7s3.4,7.7,7.7,7.7c2.3,0,4.4-1,5.8-2.7l82,53.7c-0.5,1-0.8,2.1-0.8,3.3
		c0,0.7,0.1,1.3,0.3,1.9l-95.9,38.8c-1.3-2.3-3.8-3.9-6.7-3.9c-4.2,0-7.7,3.4-7.7,7.7s3.4,7.7,7.7,7.7c3.5,0,6.5-2.4,7.4-5.6
		l91,12.7c0,0.2,0,0.4,0,0.6c0,0.8,0.1,1.6,0.3,2.3l-144.7,78.4c-1.4-1.7-3.6-2.9-6-2.9c-4.2,0-7.7,3.4-7.7,7.7c0,0.3,0,0.5,0,0.8
		l-95.4,28.5c-1.2-2.7-3.9-4.5-7-4.5c-4.2,0-7.7,3.4-7.7,7.7c0,4.2,3.4,7.7,7.7,7.7c2.6,0,5-1.3,6.3-3.4l85.8,43.2
		c-0.3,0.8-0.4,1.6-0.4,2.5c0,0.3,0,0.6,0,0.8L26.9,3840c-1.1-2.9-3.9-4.9-7.1-4.9c-2.7,0-5,1.4-6.4,3.4l-13.4-6.6l-0.9,1.8
		l13.4,6.6c-0.3,0.8-0.4,1.6-0.4,2.5c0,4.2,3.4,7.7,7.7,7.7c1.9,0,3.7-0.7,5-1.9l52.7,46.5l-78.8-2.7l-0.1,2l81.2,2.8l44.6,39.3
		l-47.9,44.7c-0.7-0.2-1.5-0.3-2.3-0.3c-2.2,0-4.1,0.9-5.5,2.3l-68.6-51.2l-1.2,1.6l68.6,51.2c-0.3,0.6-0.6,1.2-0.7,1.8l-47.1-5.8
		c0-4.2-3.5-7.6-7.7-7.6c-1.4,0-2.7,0.4-3.8,1l-7.3-9.6l-1.6,1.2l7.3,9.6c-1.4,1.4-2.3,3.3-2.3,5.4c0,4.2,3.4,7.7,7.7,7.7
		c0.8,0,1.6-0.1,2.3-0.4l32.7,69.9c-2.1,1.4-3.5,3.7-3.5,6.5c0,2.8,1.5,5.3,3.8,6.6l-10.2,24.3l1.8,0.8l10.2-24.3
		c0.6,0.2,1.3,0.3,2,0.3c4.2,0,7.7-3.4,7.7-7.7c0-3.2-1.9-5.9-4.7-7.1l17-61.9c0.9,0.4,2,0.6,3,0.6c4.2,0,7.7-3.4,7.7-7.7
		c0-0.4,0-0.7-0.1-1l134.1,31.3c0,0.2,0,0.5,0,0.8c0,4.2,3.4,7.7,7.7,7.7s7.7-3.4,7.7-7.7c0-4.2-3.4-7.7-7.7-7.7
		c-1.3,0-2.5,0.3-3.5,0.9l-50-107.1c0.4-0.3,0.8-0.6,1.2-0.9l209.1,166.5c-0.7,1.2-1.1,2.5-1.1,3.9c0,4.2,3.4,7.7,7.7,7.7
		s7.7-3.4,7.7-7.7s-3.4-7.7-7.7-7.7c-1.3,0-2.5,0.3-3.6,0.9l-35.9-50.9c1.5-1.4,2.5-3.4,2.5-5.6c0-3.3-2.1-6.1-4.9-7.2l-1.6-79.9
		c3.7-0.6,6.5-3.7,6.5-7.6c0-4.2-3.4-7.7-7.7-7.7c-2,0-3.8,0.8-5.2,2l-67.7-56.9c0.8-1.2,1.2-2.6,1.2-4.1c0-1.1-0.2-2.1-0.6-3
		l95.6-56.9c1.4,1.8,3.6,2.9,6,2.9c4.2,0,7.7-3.4,7.7-7.7c0-0.7-0.1-1.4-0.3-2.1l99.9-14.5c0.9,3.2,3.9,5.6,7.4,5.6
		c4.2,0,7.7-3.4,7.7-7.7s-3.4-7.7-7.7-7.7c-3.5,0-6.5,2.4-7.4,5.6l-144.3-21.4c0,0,0-0.1,0-0.1c0-1.9-0.7-3.6-1.8-4.9l54.4-59.5
		c1.2,0.9,2.8,1.4,4.4,1.4c4.2,0,7.7-3.4,7.7-7.7s-3.4-7.7-7.7-7.7c-2.6,0-5,1.3-6.3,3.4l-50.9-25.5c0.2-0.6,0.3-1.3,0.3-2
		c0-3.8-2.8-7-6.4-7.6l1.5-44.7c0.4,0.1,0.9,0.1,1.3,0.1c4.2,0,7.7-3.4,7.7-7.7c0-1-0.2-2-0.6-2.9l157.4-88.6
		c1.4,1.9,3.6,3.1,6.1,3.1c2.1,0,4-0.9,5.4-2.3l171.9,131.2c-0.6,1.1-1,2.4-1,3.8c0,4.2,3.4,7.7,7.7,7.7c0.4,0,0.8,0,1.2-0.1
		l11.9,41l-68.8,18.6c-1.2-2.8-3.9-4.7-7.1-4.7c-4.2,0-7.7,3.4-7.7,7.7s3.4,7.7,7.7,7.7c3.2,0,6-2,7.1-4.8l75.2,19.2
		c0,0.3-0.1,0.6-0.1,0.9c0,4.2,3.4,7.7,7.7,7.7s7.7-3.4,7.7-7.7c0-0.3,0-0.7-0.1-1l101-26.8c1.1,2.8,3.9,4.8,7.1,4.8
		c2.3,0,4.4-1,5.8-2.6l107,70.7c-0.5,1-0.8,2.1-0.8,3.4c0,4.2,3.4,7.7,7.7,7.7c1.6,0,3.1-0.5,4.3-1.3l50.2,56.6
		c-1.2,1.3-1.9,3.1-1.9,5c0,4.2,3.4,7.7,7.7,7.7s7.7-3.4,7.7-7.7c0-0.5-0.1-1.1-0.2-1.6l126.6-44.1c1.3,2.4,3.8,4,6.7,4
		c2.2,0,4.1-0.9,5.5-2.4l30.9,31.6c-1,1.3-1.6,2.9-1.6,4.7c0,4.2,3.4,7.7,7.7,7.7s7.7-3.4,7.7-7.7c0-4.2-3.4-7.7-7.7-7.7
		c-1.7,0-3.3,0.6-4.6,1.5l-31.1-31.9c0.6-1.1,0.9-2.3,0.9-3.7c0-4.2-3.4-7.7-7.7-7.7c-2.2,0-4.2,1-5.6,2.5L917,3621.5
		c0.6-1.1,0.9-2.3,0.9-3.6c0-4.2-3.4-7.7-7.7-7.7c-3.3,0-6,2-7.1,4.9l-97.5-23.9l-6.9-3.9c0.4-0.9,0.6-1.8,0.6-2.9
		c0-2.4-1.1-4.6-2.9-6l28.8-48c0.9,0.4,2,0.6,3.1,0.6c4.1,0,7.4-3.1,7.6-7.1l112.2-6.8c0.7,3.5,3.8,6.2,7.5,6.2
		c4.2,0,7.7-3.4,7.7-7.7c0-1.1-0.3-2.2-0.7-3.2l144-91c1.4,1.6,3.5,2.6,5.7,2.6c4.2,0,7.7-3.4,7.7-7.7c0-4.2-3.4-7.7-7.7-7.7
		c0,0,0,0,0,0l-49.3-84.9c1.8-1.4,3-3.6,3-6.1c0-0.6-0.1-1.2-0.2-1.7l99.2-37.1c1.2,2.6,3.9,4.5,7,4.5c4.2,0,7.7-3.4,7.7-7.7
		c0-1.7-0.5-3.2-1.4-4.5l99.9-93.9c1.3,1.1,3,1.7,4.9,1.7c1,0,1.9-0.2,2.7-0.5l25.2,46.9c-1.9,1.4-3.2,3.7-3.2,6.2
		c0,4.2,3.4,7.7,7.7,7.7c4.2,0,7.7-3.4,7.7-7.7c0-2-0.8-3.9-2.1-5.2l46-56.2c1.2,0.7,2.6,1.2,4,1.2c4.2,0,7.7-3.4,7.7-7.7
		c0-4.2-3.4-7.7-7.7-7.7c-3.4,0-6.4,2.3-7.3,5.4l-121.2-20.5c0.1-0.4,0.1-0.8,0.1-1.2c0-1.1-0.2-2.1-0.6-3l75-44.9
		c1.4,1.8,3.6,2.9,6,2.9c4.2,0,7.7-3.4,7.7-7.7s-3.4-7.7-7.7-7.7c-1,0-2,0.2-2.8,0.5l-51.3-91.7c1.7-1.3,2.9-3.3,3.1-5.6l120.8-6.8
		c0.7,3.6,3.8,6.2,7.5,6.2c4.2,0,7.7-3.4,7.7-7.7c0-0.5,0-0.9-0.1-1.3l32.8-10.3l-0.6-1.9l-32.8,10.3c-1.2-2.6-3.9-4.4-6.9-4.4
		c-0.6,0-1.1,0.1-1.6,0.2l-24.2-67C1375.6,2899.3,1376.6,2898.4,1377.3,2897.3z M52.3,4056.9c-0.3,0-0.7-0.1-1-0.1
		c-0.8,0-1.6,0.1-2.3,0.4l-32.7-69.9c1.6-1,2.8-2.6,3.3-4.5l47.1,5.8c0,2.4,1.1,4.5,2.8,5.9L52.3,4056.9z M1266.3,2900.7l-2.8,73.8
		c-2.2,0.2-4.1,1.3-5.3,2.9l-87.6-51.3l2.7-32h86.7C1260.4,2897.5,1263,2900.1,1266.3,2900.7z M1166.1,2979.1l4.2-50.7l86.8,50.8
		c-0.3,0.8-0.5,1.7-0.6,2.6l-84.9,6.7c0.2-0.6,0.3-1.3,0.3-2C1171.9,2982.9,1169.4,2979.9,1166.1,2979.1z M1088.5,3025.6l71.4-32.7
		c1.2,0.8,2.7,1.3,4.3,1.3c0.4,0,0.8,0,1.3-0.1l40.8,71.7c-0.9,0.7-1.7,1.6-2.2,2.7l-115.3-39.1c0.1-0.5,0.1-1,0.1-1.5
		C1088.9,3027,1088.8,3026.3,1088.5,3025.6z M1171.4,2892.1h-51.6c-0.2-1.7-1-3.2-2.1-4.4l40.4-52l17.3,8.9L1171.4,2892.1z
		 M1177.3,2845.6l84,43.2c-0.7,1-1.1,2.1-1.3,3.3h-86.6L1177.3,2845.6z M1171.2,2894.1l-2.6,30.9l-49.3-28.9c0.3-0.6,0.4-1.3,0.5-2
		H1171.2z M1118.3,2897.8l50.2,29.4l-4.3,51.6c-1.5,0-2.9,0.5-4,1.2l-43.4-80.7C1117.3,2898.9,1117.8,2898.4,1118.3,2897.8z
		 M1179.9,2814.1c1.7-0.1,3.3-0.7,4.5-1.7l79.1,74.2c-0.3,0.2-0.6,0.4-0.9,0.6l-85.2-43.8L1179.9,2814.1z M1177.9,2814l-2.4,28.5
		l-16.2-8.3l16.4-21C1176.4,2813.5,1177.1,2813.8,1177.9,2814z M1080.9,2793.2l91,13.2c0,0,0,0.1,0,0.1c0,2.1,0.8,4,2.2,5.4
		l-16.6,21.3l-76.8-39.5C1080.8,2793.6,1080.9,2793.4,1080.9,2793.2z M1079.9,2795.5l76.4,39.3l-40.2,51.7c-1.1-0.7-2.5-1.1-3.9-1.1
		c-0.5,0-1.1,0.1-1.6,0.2l-31.5-89.2C1079.4,2796.2,1079.6,2795.8,1079.9,2795.5z M1004.6,2899l-46.5-65.6c1.5-1.4,2.5-3.4,2.5-5.6
		c0-0.4,0-0.8-0.1-1.3l106.1-32.3c0.5,1.2,1.3,2.2,2.3,2.9l-57.8,101.5c-0.9-0.4-1.9-0.6-2.9-0.6
		C1006.9,2898.1,1005.7,2898.5,1004.6,2899z M1073.6,3027.8c0,0.2,0,0.4,0,0.7l-73.1-22.1c0.1-0.4,0.1-0.8,0.1-1.2
		c0-3.5-2.3-6.4-5.5-7.4l13-84.3c0.1,0,0.1,0,0.2,0c1.1,0,2.1-0.2,3-0.6l65.2,109C1074.7,3023.2,1073.6,3025.4,1073.6,3027.8z
		 M1078.2,3020.8l-65.2-109c1.8-1.4,2.9-3.6,2.9-6c0-2.5-1.2-4.7-3-6.1l57.8-101.5c0.9,0.4,1.9,0.6,2.9,0.6c0.8,0,1.6-0.1,2.3-0.3
		l4.2,221.8C1079.4,3020.3,1078.8,3020.5,1078.2,3020.8z M1077.8,2798.9l30.9,87.4c-2.5,1.3-4.2,3.8-4.2,6.8c0,3.3,2.1,6.1,5,7.2
		l-27.5,119.4L1077.8,2798.9z M1083.9,3020.6l27.6-119.9c0.2,0,0.5,0,0.7,0c1,0,1.9-0.2,2.7-0.5l43.6,81c-1.2,1.4-2,3.2-2,5.1
		c0,1.9,0.7,3.6,1.8,4.9l-70.6,32.3C1086.8,3022.3,1085.5,3021.2,1083.9,3020.6z M1087.9,3031.5c0.1-0.1,0.1-0.2,0.2-0.3l115.3,39.1
		c-0.1,0.5-0.1,1-0.1,1.5c0,2.9,1.6,5.4,4,6.7l-10.4,26.5c-0.6-0.1-1.2-0.2-1.8-0.2c-2.2,0-4.1,0.9-5.5,2.3L1087.9,3031.5z
		 M1227.5,3142.2l-49.7,16.8c-0.4-0.5-0.9-1-1.4-1.4l16.3-37.8c0.7,0.2,1.4,0.3,2.1,0.3c2.3,0,4.4-1.1,5.9-2.7l27.9,17.9
		c-0.9,1.3-1.5,2.8-1.5,4.5C1227.2,3140.7,1227.3,3141.4,1227.5,3142.2z M1228.4,3144c1.4,2.1,3.7,3.5,6.4,3.5
		c2.1,0,3.9-0.8,5.3-2.2l35.8,22.9c-0.3,0.5-0.5,1.1-0.6,1.7l-95.8-6.6c-0.1-0.9-0.3-1.8-0.6-2.6L1228.4,3144z M1230.1,3133.9
		l-28.2-18.1c0.5-1,0.7-2.1,0.7-3.3c0-2.9-1.6-5.4-4-6.7l10.4-26.5c0.6,0.1,1.2,0.2,1.8,0.2c0.5,0,1.1-0.1,1.6-0.2l18.9,53.7
		C1230.9,3133.2,1230.5,3133.5,1230.1,3133.9z M1099.5,3186.3c0.7-1.1,1.1-2.5,1.1-3.9c0-0.3,0-0.5,0-0.8l64.2-15.2
		c0.4,1,0.9,1.8,1.6,2.6l-32.2,40.2c-1.3-2.3-3.8-3.8-6.6-3.8c-1,0-1.9,0.2-2.7,0.5L1099.5,3186.3z M1071.4,3265
		c0.7,1,1.7,1.8,2.8,2.3l-14.5,42.9c-0.5-0.1-1-0.1-1.5-0.1c-4.1,0-7.4,3.2-7.6,7.3l-82.5,6.5c-0.1-0.4-0.2-0.8-0.4-1.2L1071.4,3265
		z M914.8,3361.6l136.4-40.7c0.7,1.6,2,3,3.6,3.8l-43.1,62c-1.1-0.5-2.2-0.9-3.5-0.9c-3.1,0-5.7,1.8-6.9,4.4l-86.5-26.2
		c0.1-0.4,0.1-0.8,0.1-1.2C914.9,3362.4,914.8,3362,914.8,3361.6z M954.9,3330.7c1.4,1.5,3.4,2.5,5.6,2.5c4.1,0,7.4-3.2,7.6-7.3
		l80.7-6.3l-134.7,40.1c-0.1-0.1-0.1-0.3-0.2-0.4L954.9,3330.7z M756.2,3508.1c0.7,0,1.4-0.1,2-0.3l29.4,70
		c-2.3,1.3-3.8,3.8-3.8,6.6c0,0.7,0.1,1.4,0.3,2.1l-88.1,37.7l-2.9,0.1c-0.2-1.2-0.7-2.4-1.4-3.3l27-47.7c0.5,0.1,1,0.2,1.6,0.2
		c4.2,0,7.7-3.4,7.7-7.7c0-2.5-1.2-4.8-3.1-6.2l28.7-52C754.3,3508,755.2,3508.1,756.2,3508.1z M867.6,3628.4l-54.8,14.8l-7.7-20.8
		l49-1.7L867.6,3628.4z M857.9,3620.7l43.7-1.5l-31.3,8.5L857.9,3620.7z M810.8,3643.8l-50.2,13.6l-67.7-29.7l3.6-1.5l106.5-3.6
		L810.8,3643.8z M701.6,3624l83.4-35.7c1.3,2.2,3.8,3.8,6.6,3.8c0.1,0,0.1,0,0.2,0l10.5,28.5L701.6,3624z M751.7,3506.6l-28.7,52
		c-0.9-0.3-1.8-0.5-2.8-0.5c-2.9,0-5.4,1.6-6.7,3.9l-114.7-88.4c0.3-0.5,0.5-0.9,0.7-1.5l149.1,27.9c0,0.1,0,0.3,0,0.4
		C748.6,3503,749.8,3505.3,751.7,3506.6z M509.2,3484.9l75.7-12.8c1,3.1,3.9,5.4,7.3,5.4c2.1,0,4-0.9,5.4-2.2l110.2,84.9L509,3486.8
		c0.1-0.5,0.2-1.1,0.2-1.7C509.2,3485.1,509.2,3485,509.2,3484.9z M567.6,3353l182.1,143.6c-0.3,0.5-0.5,1-0.7,1.5l-149.1-27.9
		c0-0.1,0-0.3,0-0.4c0-4.2-3.4-7.7-7.7-7.7c-0.3,0-0.6,0-0.8,0L565,3354.6C566,3354.2,566.8,3353.7,567.6,3353z M461.8,3331.7
		l-125,236.1l60.8-166.9c0.5,0.1,1.1,0.2,1.7,0.2c4.2,0,7.7-3.4,7.7-7.7c0-1.8-0.6-3.4-1.6-4.7l56.3-57.2
		C461.7,3331.6,461.7,3331.7,461.8,3331.7z M426.2,3280.1c1.4,0,2.7-0.4,3.8-1l30.8,40.9c-1.4,1.4-2.3,3.3-2.3,5.5
		c0,1.8,0.6,3.4,1.6,4.7l-56.3,57.2c-0.9-0.7-2-1.2-3.2-1.4l24.8-105.8C425.7,3280.1,426,3280.1,426.2,3280.1z M304.6,3291.1
		C304.6,3291.1,304.5,3291.1,304.6,3291.1l114.3-16.6c0.7,2.3,2.4,4.2,4.7,5.1l-24.9,106.2c-1.5,0.1-2.9,0.7-4.1,1.6l-91.6-91.6
		C304,3294.5,304.6,3292.9,304.6,3291.1z M391.8,3391.6l-58,18.9c-1.2-2.6-3.9-4.4-6.9-4.4c-0.3,0-0.6,0-0.8,0l-26.4-107.9
		c0.7-0.3,1.3-0.6,1.9-1.1l91.6,91.6C392.5,3389.6,392,3390.6,391.8,3391.6z M228.5,3625.7C228.5,3625.6,228.6,3625.6,228.5,3625.7
		c0-0.7-0.1-1.4-0.2-2l95.9-38.8c0.8,1.4,2,2.5,3.4,3.2l-1.5,45.2c-3,0.3-5.5,2.3-6.4,5.1L228.5,3625.7z M175.9,3729.6l143.4,14.1
		c0,1.4,0.5,2.7,1.2,3.8l-48.9,40.3c-1.4-1.3-3.2-2.1-5.2-2.1c-2.9,0-5.4,1.6-6.7,4l-83.7-60.1
		C175.8,3729.7,175.8,3729.7,175.9,3729.6z M174.7,3731.4l84,60.3c-0.1,0.6-0.2,1.1-0.2,1.7c0,3.7,2.7,6.9,6.2,7.5l-2.4,41.8
		c-1.2,0.1-2.3,0.4-3.3,1l-85.6-111.2C173.9,3732.3,174.3,3731.9,174.7,3731.4z M168.9,3734.1c1,0,1.9-0.2,2.8-0.5l85.8,111.5
		c-0.5,0.5-0.9,1.1-1.3,1.7l-90.6-36c0.2-0.6,0.2-1.2,0.2-1.9c0-3.6-2.5-6.6-5.8-7.4l7.5-67.4C168,3734.1,168.4,3734.1,168.9,3734.1
		z M66.1,3761.3c0.3-0.8,0.4-1.6,0.4-2.5c0-0.4,0-0.8-0.1-1.2l95.3-28.4c0.7,1.9,2.1,3.4,3.9,4.2l-7.6,67.8
		c-2.6,0.1-4.8,1.4-6.2,3.3L66.1,3761.3z M27.4,3842l123.7-30.4c0.8,2,2.3,3.6,4.3,4.3l8.6,75.8c-2.1,0.5-3.9,1.9-4.9,3.8l-132-50.9
		c0.1-0.6,0.2-1.2,0.2-1.8C27.4,3842.5,27.4,3842.2,27.4,3842z M26.1,3847.1c0.1-0.2,0.3-0.4,0.4-0.6l132,50.9
		c0,0.2-0.1,0.4-0.1,0.5l-77.7-2.7L26.1,3847.1z M83,3897.3l75.3,2.6c0.1,1.4,0.6,2.6,1.4,3.7l-33.8,31.5L83,3897.3z M81.2,3985.2
		c-0.6-1.3-1.5-2.4-2.7-3.2l47.5-44.3l89.1,78.7L81.2,3985.2z M218.3,4013.9c-0.5,0.5-1,1-1.4,1.7l-89.6-79.1l33.6-31.4
		c1.3,1.1,3,1.8,4.9,1.8c0.8,0,1.6-0.1,2.3-0.4L218.3,4013.9z M166,3891.5l-8.6-75c0.3,0,0.5,0,0.8,0c2.9,0,5.4-1.6,6.7-3.9l90.6,36
		c-0.2,0.6-0.2,1.2-0.2,1.9c0,0.9,0.2,1.7,0.4,2.5l-83.4,41.9C170.9,3892.8,168.6,3891.5,166,3891.5z M345.8,4018.6l35.9,50.9
		c0,0-0.1,0.1-0.1,0.1l-197.3-157.1l151,96.1c-0.5,1-0.7,2.1-0.7,3.2c0,4.2,3.4,7.7,7.7,7.7C343.5,4019.5,344.7,4019.2,345.8,4018.6
		z M341.4,3924.8l1.6,79.4c-0.2,0-0.5,0-0.7,0c-2.4,0-4.5,1.1-5.9,2.7l-163.7-104.1c0.3-0.6,0.5-1.2,0.7-1.8l161.2,16.5
		C334.7,3921.2,337.6,3924.3,341.4,3924.8z M335.8,3913c-0.5,0.7-0.8,1.5-1,2.4l-161.2-16.5c0-0.8-0.2-1.6-0.4-2.3l83.4-41.9
		c1.4,2,3.7,3.4,6.3,3.4c2,0,3.8-0.8,5.2-2L335.8,3913z M268.9,3845.7c-1.1-1.4-2.7-2.4-4.6-2.8l2.4-41.8c3.8-0.3,6.9-3.4,7.1-7.2
		l90.2-6.6c0.1,0.5,0.3,1,0.5,1.5L268.9,3845.7z M334.3,3745.6l144.3,21.4c0,0,0,0.1,0,0.1c0,0,0,0.1,0,0.1l-100.5,14.6
		c-1.3-2.2-3.8-3.7-6.6-3.7c-4.1,0-7.4,3.2-7.6,7.2l-90.2,6.6c-0.2-0.9-0.5-1.8-1-2.5l48.9-40.3c1.4,1.3,3.2,2.1,5.2,2.1
		C330.4,3751.1,333.3,3748.8,334.3,3745.6z M333.5,3644.8l50.8,25.5c-0.3,0.8-0.4,1.6-0.4,2.5c0,1.9,0.7,3.6,1.8,4.9l-54.4,59.5
		c-0.9-0.6-2-1.1-3.1-1.3l3.5-89C332.4,3646.3,333,3645.6,333.5,3644.8z M329.6,3648.1l-3.4,87.8c-3.3,0.3-6,2.7-6.8,5.9l-143-14.1
		c0.1-0.4,0.1-0.8,0.1-1.2c0-1.1-0.2-2.2-0.7-3.1l144.5-78.3c1.4,2.1,3.7,3.6,6.5,3.6C327.8,3648.6,328.8,3648.4,329.6,3648.1z
		 M330.9,3573.5c-2.3,0-4.4,1-5.8,2.7l-82-53.7c0.5-1,0.8-2.1,0.8-3.3c0-1.4-0.4-2.7-1-3.8l151-116.4c0.5,0.5,1.2,1,1.9,1.4
		l-63.1,173.4C332,3573.5,331.5,3573.5,330.9,3573.5z M493.9,3485.1c0,1,0.2,2,0.6,2.9L337,3576.6c-0.5-0.6-1-1.2-1.7-1.7
		l128.2-242.2c0.8,0.3,1.7,0.5,2.7,0.5c0.2,0,0.4,0,0.6,0l31.6,145C495.8,3479.3,493.9,3482,493.9,3485.1z M501.6,3477.5
		c-0.4,0-0.8,0-1.2,0.1l-31.5-144.9c2.2-0.8,3.9-2.6,4.7-4.8l82,15.9c-0.6,1.1-0.9,2.3-0.9,3.6c0,2.3,1.1,4.4,2.7,5.8l-52.7,124.8
		C503.6,3477.7,502.6,3477.5,501.6,3477.5z M506.3,3479.1l52.7-124.7c1,0.5,2.1,0.7,3.3,0.7c0.3,0,0.6,0,0.8,0l26.4,107.6
		c-2.9,1.1-4.9,3.9-4.9,7.1c0,0.1,0,0.2,0,0.3l-75.7,12.8C508.4,3481.4,507.5,3480.1,506.3,3479.1z M685.5,3617.9
		c-2.1,0-4,0.9-5.4,2.3L508.2,3489c0-0.1,0.1-0.2,0.1-0.2l204.4,75.4c-0.1,0.5-0.2,1.1-0.2,1.7c0,3,1.7,5.5,4.2,6.8l-26.5,46.9
		C688.9,3618.5,687.3,3617.9,685.5,3617.9z M688.6,3632.6c1.5-0.6,2.7-1.7,3.5-3.1l65.4,28.7l-57,15.4L688.6,3632.6z M705.4,3715.9
		l-75.2-19.2c0-0.3,0.1-0.6,0.1-0.9c0-0.3,0-0.7-0.1-1l68.9-18.6l10.3,35.6C707.6,3712.6,706.2,3714.1,705.4,3715.9z M820.6,3689.1
		l-101,26.8c-1.1-2.8-3.9-4.8-7.1-4.8c-0.4,0-0.8,0-1.2,0.1l-10.3-35.6l59.4-16.1l60.4,26.5c-0.2,0.7-0.3,1.4-0.3,2.1
		C820.6,3688.4,820.6,3688.8,820.6,3689.1z M821.7,3684.1l-58.1-25.5l48-13l13.2,35.6C823.4,3682,822.4,3683,821.7,3684.1z
		 M942.1,3762.1l-107-70.7c0.5-1,0.8-2.1,0.8-3.4c0-4.2-3.4-7.7-7.7-7.7c-0.6,0-1.1,0.1-1.7,0.2l-13.1-35.5l56.6-15.3l49.1,27.7
		l25.9,102.5C943.9,3760.5,942.9,3761.2,942.1,3762.1z M1015.1,3831.7c-1.3-2.5-3.8-4.2-6.8-4.2c-1.6,0-3.1,0.5-4.3,1.3l-50.2-56.6
		c0.5-0.5,0.8-1.1,1.1-1.8l186.6,15.6c0,0.5,0.1,1.1,0.2,1.6L1015.1,3831.7z M1141.7,3784l-186.2-15.6c0.1-0.4,0.1-0.9,0.1-1.3
		c0-4.2-3.4-7.7-7.7-7.7c-0.3,0-0.6,0-0.9,0.1l-25.4-100.7L1142,3783C1141.9,3783.3,1141.7,3783.7,1141.7,3784z M915.9,3623.1
		l216.3,152l-211.2-118.9L913,3625C914.1,3624.6,915.1,3624,915.9,3623.1z M903.1,3620.9c1.2,2.8,3.9,4.7,7.1,4.7
		c0.3,0,0.6,0,0.9-0.1l7.4,29.3l-45.7-25.7L903.1,3620.9z M902.6,3617.1C902.6,3617.1,902.6,3617.2,902.6,3617.1l-48,1.7l-42.5-24
		L902.6,3617.1z M797.7,3589.1l0.7,0.4l-0.8-0.2C797.6,3589.2,797.6,3589.1,797.7,3589.1z M804.8,3593.1l45.9,25.9l-46.4,1.6
		l-10.6-28.7c0.7-0.2,1.4-0.5,2-0.9L804.8,3593.1z M794.6,3577.5c-0.9-0.4-2-0.6-3.1-0.6c-0.7,0-1.4,0.1-2,0.3l-29.4-70
		c1.3-0.8,2.4-1.9,3.1-3.3l57.5,18.4c-0.1,0.4-0.1,0.9-0.1,1.4c0,2.4,1.1,4.6,2.9,6L794.6,3577.5z M828.2,3515.8
		c-3.1,0-5.7,1.8-6.9,4.4l-57.5-18.4c0.1-0.4,0.1-0.9,0.1-1.4c0-1.6-0.5-3.1-1.4-4.4l139.8-127.4c0.2,0.2,0.4,0.4,0.7,0.5l-72.3,147
		C829.9,3516,829.1,3515.8,828.2,3515.8z M832.5,3517.1l72.3-147c0.8,0.3,1.6,0.4,2.5,0.4c3.1,0,5.8-1.9,7-4.5l86.5,26.2
		c-0.1,0.4-0.1,0.9-0.1,1.3c0,1.6,0.5,3.1,1.4,4.4l-168.1,120.4C833.4,3517.8,833,3517.4,832.5,3517.1z M961.4,3510.9
		c-1.4-1.7-3.5-2.8-5.9-2.8c-4.1,0-7.4,3.1-7.6,7.1l-112.2,6.8c0-0.1,0-0.2-0.1-0.3l268.8-101.3L961.4,3510.9z M835,3519.9
		l168.3-120.5c1.3,1.1,3.1,1.8,4.9,1.8c3.3,0,6.2-2.1,7.2-5.1l89.2,19.1c-0.1,0.4-0.1,0.9-0.1,1.3c0,0.6,0.1,1.2,0.2,1.7L835,3519.9
		z M1110,3409.1c-2.1,0.6-3.9,2.2-4.8,4.1l-89.4-19.2c0-0.2,0-0.4,0-0.6c0-2.2-1-4.3-2.5-5.7l43.5-62.5c0.4,0.1,0.9,0.1,1.4,0.1
		c1,0,2-0.2,2.9-0.6L1110,3409.1z M1065,3314.2c-0.8-1.4-1.9-2.6-3.4-3.3l14.5-42.9c0.5,0.1,1,0.1,1.5,0.1c3.5,0,6.4-2.3,7.4-5.5
		l79.4,12.1c0,0.3-0.1,0.7-0.1,1.1c0,0.4,0,0.9,0.1,1.3L1065,3314.2z M1164.8,3272.8l-79.6-12.2c0-0.1,0-0.1,0-0.2
		c0-1.7-0.5-3.2-1.5-4.5l39-36.9c1.3,1.1,3,1.7,4.8,1.7c1.3,0,2.6-0.3,3.7-0.9l36.3,49.7C1166.3,3270.4,1165.4,3271.5,1164.8,3272.8
		z M1170.9,3268.2c-0.6,0.1-1.1,0.2-1.7,0.4l-36.4-49.9c1.5-1.4,2.4-3.4,2.4-5.5c0-0.6-0.1-1.2-0.2-1.7l32.9-41.1
		c1.1,0.7,2.4,1.1,3.7,1.1L1170.9,3268.2z M1167.8,3157.3l-41.9-42.8c0.8-1,1.3-2.2,1.5-3.5l59.8,2.1c0.2,2.5,1.7,4.6,3.7,5.8
		l-16.3,37.6c-0.9-0.3-1.8-0.5-2.8-0.5C1170.4,3156.1,1169,3156.6,1167.8,3157.3z M1176.7,3269.9c-1.1-0.9-2.4-1.5-3.8-1.7l0.7-97
		c2.9-0.7,5.2-3,5.8-5.9l95.8,6.6c0.1,1.5,0.6,2.9,1.4,4L1176.7,3269.9z M1365.3,3169.1l-46,56.2c-1.2-0.7-2.6-1.2-4-1.2
		c-1,0-1.9,0.2-2.7,0.5l-25.2-46.9c1.8-1.3,3.1-3.5,3.2-5.9l72.9-6.3C1363.7,3166.8,1364.4,3168.1,1365.3,3169.1z M1363,3163.5
		l-72.6,6.3c-0.8-3.4-3.8-6-7.5-6c-2.4,0-4.5,1.1-5.9,2.7l-35.6-22.8c0.2-0.3,0.3-0.5,0.4-0.8L1363,3163.5z M1240.8,3135.1
		c-1.4-1.8-3.6-2.9-6-2.9c-0.5,0-1.1,0.1-1.6,0.2l-18.9-53.7c1.1-0.6,2.1-1.4,2.8-2.4l98.1,11.1c0,1,0.2,2,0.6,2.9L1240.8,3135.1z
		 M1315.5,3085.3l-97.3-11c0.3-0.8,0.4-1.6,0.4-2.5c0-4.2-3.4-7.7-7.7-7.7c-1,0-2,0.2-2.9,0.6l-40.6-71.3c0.6-0.3,1.2-0.6,1.7-1.1
		l146.8,91.6C1315.7,3084.4,1315.6,3084.8,1315.5,3085.3z M1318.3,3081c-0.5,0.4-1,0.8-1.3,1.3l-146.5-91.4c0.1-0.1,0.2-0.2,0.2-0.4
		l86-6.8c0.7,3.5,3.8,6.1,7.5,6.1c1,0,2-0.2,2.8-0.5L1318.3,3081z M1392.6,2973.9l-120.8,6.8c-0.6-3.1-3.1-5.6-6.2-6.1l2.8-73.8
		c2.1-0.2,4-1.2,5.2-2.8l119.7,73.4C1392.9,2972.1,1392.6,2973,1392.6,2973.9z M1396.7,2967.7c-0.9,0.5-1.8,1.2-2.4,2l-119.7-73.4
		c0.3-0.7,0.5-1.4,0.6-2.1h88.1c0.5,3.8,3.7,6.7,7.6,6.7c0.6,0,1.1-0.1,1.6-0.2L1396.7,2967.7z"/>
</g>
</svg>
