<svg xmlns="http://www.w3.org/2000/svg" viewBox="-186 255 238 283"><g fill="#fff" fill-opacity=".75"><path class="st0" d="M-97.9 362.4l5.7 1.9c6.9-20.3 6.9-43.8.1-69.7l-5.8 1.5c6.5 24.9 6.5 47.1 0 66.3zm-7.3-44.8l4.1-4.3c-6.1-5.8-9.2-11.5-9.1-17 .1-5.2 3.1-10.5 9-15.6l-4-4.5c-7.2 6.3-10.9 13-11 20 0 7.1 3.6 14.3 11 21.4zm-15.8 65.6l6 .5c1.1-14.1.1-22.6-4.1-34.6-3.6-10.3 3.2-24.4 8.6-34.2l-5.2-2.9c-6.5 11.7-13.4 26.7-9 39.1 3.9 11.2 4.7 18.7 3.7 32.1zm-5.8 15.6c2.2 5.6 5.9 9.7 10.3 11.5 1.7.7 3.5 1 5.3 1 2.1 0 4.2-.5 6.3-1.4l-2.4-5.5c-2.4 1.1-4.7 1.2-6.9.3-2.9-1.2-5.4-4.1-7-8.2-4.4-11.1-16-16.2-24.9-16.2v6c5 .1 15.5 2.7 19.3 12.5zm24-10.8l-.6 6c1.5.2 4.5.4 8 .4 2 0 4.3-.1 6.5-.3 7.1-.8 11.5-2.8 13.4-6.2l-5.2-3c-1.6 2.9-11.3 4.2-22.1 3.1zm2 61.4c5.3 0 11.1-1.9 15.1-7.4l-4.8-3.5c-4.9 6.8-13.4 4.7-14.3 4.4-1.5-.4-3.9-3.9-5.9-6.7-1.6-2.3-3.3-4.7-5.2-6.8l-1 .9c-13.2-14.5-19.2-24.7-20.2-34.2l-6 .6c1.1 11.1 7.6 22.2 22.2 38.1 6 6.6 6.1 21.1 1.7 26.3-4.9 5.8-11.1 8.2-17.9 6.9l-1.1 5.9c1.5.3 3 .4 4.5.4 7.2 0 13.8-3.2 19.1-9.3 3.7-4.3 5.1-11.6 4.4-18.7 1.2 1.1 2.4 1.9 3.8 2.3 1.7.5 3.6.8 5.6.8z"/><path class="st0" d="M-154 417.9c1.8-16.1-.6-24.4-9.2-31.8l-3.9 4.5c6.1 5.3 8.9 10.8 7.1 26.6-1.1 9.6 1.5 23.6 20.2 35.7l3.2-5c-8.8-5.7-19-15.6-17.4-30zm39.8 85.2c-8.9-6.3-12.6-12-19.2-26l-5.4 2.6c6.4 13.6 10.6 20.9 21.2 28.3 8 5.7 16.3 6.4 19.9 6.4 1.1 0 1.8-.1 1.9-.1l-.6-6c-.1.1-9.2.9-17.8-5.2zm3.3-29.7l-.4 6c2.7.2 9.5 1.1 15.5 5.1 5.4 3.6 8.3 8.7 8.8 15.1l6-.4c-1.2-16.4-15.9-24.8-29.9-25.8z"/><path class="st0" d="M43.7 441.6C54 430.8 52 411.7 51.1 406c-1.1-7.2-5-9.4-7.1-10.4.7-7.2.4-32.4-.1-37-.7-5.4-8.9-15.9-14.1-18.6.1-.5.2-1 .3-1.4 2.4-11.7-4.7-30-11.9-35.6-2.9-2.3-5.3-2.1-6.8-1.4l-.3-4.8c-1.2-16.7-16.4-27.6-23.9-28.5-3-.4-4.9.7-6 1.7-3.3-5.1-9.6-10.7-19.5-13.6-12.5-3.7-24.1 6-29.2 11.3-5.6-5.4-16.5-13.7-28.2-10.3-9.9 2.9-16.2 8.5-19.5 13.6-1.1-1-3.1-2.1-6-1.7-7.5.9-22.8 11.9-23.9 28.5l-.3 4.8c-1.5-.6-3.9-.9-6.8 1.4-7.2 5.7-14.3 24-11.9 35.6.1.5.2 1 .3 1.4-5.2 2.8-13.4 13.2-14.1 18.6-.6 4.6-.8 29.8-.1 37-2.1 1.1-6 3.3-7.1 10.4-.9 5.7-2.9 24.8 7.4 35.6-.2.4-.4.8-.5 1.2-.5 2.5.9 23.9 4.5 28.8 1.2 1.7 5 4.9 12.2 11.1 9.9 8.4 23.4 20 27.1 25.8.4.7.9 1.4 1.4 2.2 6.3 10.2 15.8 25.7 32.6 25.7h.1c16.3 0 28-8.2 33.9-17.8 6.1 9.1 17.5 16.8 33.3 16.8h.1c16.8 0 26.3-15.5 32.6-25.7.5-.8.9-1.5 1.4-2.2 3.6-5.8 17.2-17.4 27.1-25.8 7.2-6.1 11-9.4 12.2-11.1 3.5-4.9 5-26.4 4.5-28.8-.6-.4-.8-.8-1.1-1.2zm-144.4 89.8s-.1 0 0 0c-13.5 0-21.6-13.2-27.5-22.8-.5-.8-.9-1.5-1.4-2.2-4.1-6.6-17.5-18-28.3-27.2-4.9-4.1-10.4-8.8-11.2-10-1.5-2.1-2.9-13.1-3.3-19.7 1.9 1.5 4.1 3.4 6.1 5.2l4.4-4c-.1-.1-2.4-3.2-11.2-11.6-7.1-6.9-8-20.6-6.3-31.1.7-4.4 2.5-5.3 4.1-6.1 1.1-.5 4-2 3.1-5.2-.5-2.6-.6-30.5.1-36.3.4-3.5 6.4-10.5 9.6-13.1.1.2.1.3.2.5 1.9 6.9 3.8 12 3.9 12.3l5.7-1.8c-1.6-5.9-2.9-9.9-4-12.5-.6-2.3-1.2-4.7-1.7-7.3-1.9-9.4 4-25.2 9.7-29.7.4-.3.7-.5.9-.5.6.7 1.4 3.4 1.5 5.6h6l1.1-15.6c.9-13.5 13.7-22.4 18.7-23 .9-.1 1.2.1 1.3.3.7.6 1.1 2.4 1.1 3.3h6c0-2.2 4.5-11.6 18.1-15.6 9.2-2.7 18.6 5.1 23 9.5v237.7l.1.4c.2.9.5 1.7.9 2.6-5.3 11.7-18.9 17.9-30.7 17.9zM38.9 438c-8.7 8.4-11.1 11.5-11.2 11.6l4.4 4c2-1.8 4.2-3.7 6.1-5.2-.4 6.6-1.8 17.6-3.3 19.7-.8 1.2-6.4 5.9-11.2 10-10.8 9.2-24.1 20.6-28.3 27.2-.4.7-.9 1.5-1.4 2.2-5.9 9.6-14.1 22.8-27.5 22.8-11.5 0-24.8-5.9-30.2-17.3.2-.5.3-1 .5-1.5l.1-.4V272.5l-.4-.5c4.2-4.4 13.9-12.8 23.5-10 13.6 4 18.1 13.4 18.1 15.6h6c0-.8.3-2.6 1.1-3.3.1-.1.4-.4 1.3-.3 5 .6 17.7 9.5 18.7 23l1.1 15.6h6c.1-2.3.9-4.9 1.5-5.6.2.1.4.2.9.5 5.7 4.5 11.7 20.3 9.7 29.7-.5 2.5-1.1 5-1.7 7.3-1.1 2.6-2.4 6.6-4 12.5l5.7 1.8c.1-.3 2.1-5.4 3.9-12.3.1-.2.1-.3.2-.5 3.1 2.7 9.1 9.6 9.6 13.1.7 5.7.6 33.6.1 36.2-.9 3.3 2 4.8 3.1 5.3 1.6.8 3.4 1.7 4.1 6.1 1.4 10.7.6 24.4-6.5 31.3z"/><path class="st0" d="M-35.3 362.4c-6.5-19.2-6.5-41.5.1-66.3l-5.8-1.5c-6.9 25.9-6.8 49.4.1 69.7l5.6-1.9zm2.1-49.2l4.1 4.3c7.4-7 11.1-14.2 10.9-21.4-.1-7-3.8-13.7-11-20l-4 4.5c5.9 5.2 8.9 10.4 9 15.6.2 5.5-2.8 11.2-9 17zm9.5 1.7c5.4 9.8 12.2 23.9 8.6 34.2-4.2 12-5.2 20.4-4.1 34.6l6-.5c-1-13.4-.2-20.9 3.8-32.1 4.3-12.4-2.6-27.4-9-39.1l-5.3 2.9zm2.7 89.9c-2.2.9-4.5.8-6.9-.3l-2.4 5.5c2.1.9 4.2 1.4 6.3 1.4 1.8 0 3.6-.3 5.3-1 4.4-1.8 8.1-5.9 10.3-11.5 3.8-9.9 14.3-12.5 19.3-12.5v-6c-8.9 0-20.5 5.1-24.9 16.2-1.6 4.1-4.1 7-7 8.2zm-17.8-10.4c3.5 0 6.5-.3 8-.4l-.6-6c-10.7 1.1-20.4-.3-22.1-3.1l-5.2 3c2 3.4 6.3 5.4 13.4 6.2 2.2.2 4.4.3 6.5.3zm23.8 66.8c-4.5-5.2-4.4-19.7 1.7-26.3 14.6-16 21-27 22.2-38.1l-6-.6c-1 9.5-7 19.8-20.2 34.2l-1-.9c-1.9 2.1-3.6 4.5-5.2 6.8-2 2.8-4.4 6.3-5.9 6.7-.9.3-9.4 2.3-14.3-4.4l-4.8 3.5c4 5.5 9.9 7.4 15.1 7.4 2 0 3.9-.3 5.6-.7 1.4-.4 2.6-1.2 3.8-2.3-.7 7.1.7 14.4 4.4 18.7 5.2 6.1 11.9 9.3 19.1 9.3 1.5 0 3-.1 4.5-.4l-1.1-6c-6.8 1.2-13-1.2-17.9-6.9z"/><path class="st0" d="M21.8 417.9c1.6 14.4-8.6 24.2-17.5 29.9l3.2 5c18.7-12 21.3-26 20.2-35.7-1.8-15.8 1-21.3 7.1-26.6l-3.9-4.5c-8.5 7.5-10.9 15.8-9.1 31.9zM-21 503.1c-8.6 6.1-17.7 5.3-17.8 5.3l-.6 6c.1 0 .8.1 1.9.1 3.7 0 11.9-.7 19.9-6.4 10.6-7.5 14.7-14.7 21.2-28.3l-5.4-2.6c-6.6 13.9-10.3 19.6-19.2 25.9zm-2.9-23.7l-.4-6c-14 1-28.7 9.4-29.8 25.8l6 .4c.4-6.4 3.4-11.5 8.8-15.1 5.9-4 12.8-4.9 15.4-5.1z"/></g></svg>