<svg xmlns="http://www.w3.org/2000/svg" viewBox="0 0 1117 630"><path d="M1011.5 486.3c-1.7 0-3.2.6-4.5 1.5l-89.5-94.1-15.4-187.2c3.5-.7 6-3.8 6-7.5 0-4.2-3.4-7.7-7.7-7.7-4.2 0-7.6 3.4-7.7 7.6l-48.2 22.5c-1.4-2.1-3.7-3.6-6.4-3.6l-8.7-48.5c3.1-1 5.3-3.9 5.3-7.3 0-4.2-3.4-7.7-7.7-7.7-4 0-7.3 3-7.6 6.9l-201.3 7.1-169.2-55.1c.1-.4.1-.8.1-1.2 0-3.7-2.6-6.8-6.1-7.5l4.3-56.2c4.2-.1 7.5-3.5 7.5-7.7s-3.4-7.7-7.7-7.7c-3.9 0-7.1 2.9-7.6 6.6l-197.8 83.8c-1.3-2.3-3.8-3.8-6.6-3.8-2.4 0-4.6 1.1-6 2.9l-58.1-34.6c.4-.9.6-2 .6-3 0-3.2-1.9-5.9-4.6-7l16.9-59.1c.4.1.8.1 1.1.1 4.3 0 7.8-3.5 7.8-7.8s-3.5-7.8-7.8-7.8-7.8 3.5-7.8 7.8c0 3.2 1.9 5.9 4.7 7.1L165 77.4c-.4-.1-.7-.1-1.1-.1-.6 0-1.1.1-1.7.2l-16.3-44.4c2.2-1.4 3.6-3.8 3.6-6.6 0-4.3-3.5-7.8-7.8-7.8s-7.8 3.5-7.8 7.8 3.5 7.8 7.8 7.8c.8 0 1.6-.1 2.3-.3l16.3 44.3c-2.4 1.3-4.1 3.8-4.1 6.8 0 4.2 3.4 7.7 7.7 7.7.8 0 1.6-.1 2.4-.4l40.3 84.9c-2.1 1.4-3.5 3.7-3.5 6.4 0 4.2 3.4 7.6 7.6 7.7l10.9 91c-3.2.9-5.5 3.9-5.5 7.4 0 4.2 3.4 7.7 7.7 7.7 1 0 1.9-.2 2.7-.5l84.3 101.6c-1.3 1.4-2 3.2-2 5.2 0 3.8 2.8 7 6.5 7.6l-1.3 57.5c-3.8.4-6.8 3.7-6.8 7.6 0 4.2 3.4 7.7 7.7 7.7.4 0 .8 0 1.1-.1l19.8 69.1c-2.7 1.2-4.6 3.9-4.6 7 0 4.2 3.4 7.7 7.7 7.7 4.3 0 7.7-3.4 7.7-7.7 0-2.6-1.3-4.8-3.2-6.2l64.5-120.3c.8.3 1.8.5 2.7.5 3 0 5.7-1.8 6.9-4.4l192.7 63c-.1.5-.1.9-.1 1.4 0 4.2 3.4 7.7 7.7 7.7s7.7-3.4 7.7-7.7c0-2.5-1.2-4.6-3-6.1l42.3-105.7 66.4-57.5 53.8 17.6c-.2.7-.3 1.4-.3 2.2 0 4.2 3.4 7.7 7.7 7.7 1.6 0 3-.5 4.2-1.3l123 141.1c-1.2 1.4-1.9 3.1-1.9 5.1 0 4.2 3.4 7.7 7.7 7.7h.2l11 67.8c-2.8 1.2-4.7 3.9-4.7 7.1 0 4.3 3.5 7.8 7.8 7.8s7.8-3.5 7.8-7.8-3.5-7.8-7.8-7.8c-.4 0-.7 0-1.1.1l-10.9-67.5c1.2-.3 2.2-1 3-1.8l63.2 51.6c-.3.8-.4 1.6-.4 2.5 0 4.2 3.4 7.7 7.7 7.7s7.7-3.4 7.7-7.7c0-3.4-2.3-6.4-5.4-7.3l8.2-47.7h.3c4.2 0 7.7-3.4 7.7-7.7-.1-4.4-4-8-8.2-8zM900.1 206.7l15.2 184.7-41.9-44c1.1-1.3 1.7-3 1.7-4.8 0-3.3-2.1-6.1-5-7.2l29.1-128.8c.3 0 .6 0 .9.1zm-54.4 18.8c0-.8-.1-1.6-.3-2.3l47.8-22.2c.6 2.2 2.2 4 4.2 4.9l-29.1 128.9h-.4L841 232.5c2.7-1 4.7-3.8 4.7-7zM827 169.7h.4l8.7 48.4c-2.5.7-4.6 2.6-5.3 5.1l-89.5-15.9v-.3c0-.8-.1-1.6-.4-2.4l79.8-38.4c1.3 2.1 3.6 3.5 6.3 3.5zM666 294.8c-4.2 0-7.7 3.4-7.7 7.7v.5l-141.8 27.7c-.3-1.7-1.2-3.3-2.4-4.4l17.1-22.8 124.7-58.8 51.4 25-16 40-17.8-5.8c.1-.5.1-.9.1-1.4.1-4.2-3.4-7.7-7.6-7.7zm-288.5-37.4l-55.8-32.2c.3-.7.5-1.4.5-2.1l70.8-1.5-15.5 35.8zm17.8-35.8l180.8-3.9-196.3 39.5 15.5-35.6zm-16.8 38.7l107.8 62.1-163.5 77.1c-.9-1.4-2.2-2.4-3.7-3l59.4-136.2zm-61.2 135.4l-1.1-123.6 60.3-12.1-59.2 135.7zm63.2-136.6l206.9-41.6h2c.1.2.2.5.3.7L530 259.8c-1.4-1.5-3.4-2.5-5.7-2.5-4.2 0-7.7 3.4-7.7 7.7 0 3.2 2 6 4.9 7.1l-9.4 38.1-23.6 11.2-108-62.3zm149.4 42.8l-15.4 7.3 9-36.5h.8c4.2 0 7.7-3.4 7.7-7.7 0-1.3-.3-2.5-.9-3.5l59.7-41.6.3.3-61.2 81.7zm62.8-80.5c1.1.6 2.4 1 3.8 1 2.7 0 5-1.4 6.4-3.4l50.7 24.7-119.8 56.5 58.9-78.8zm-81.2 91.4l-2.9 11.6c-3.1.1-5.7 2.1-6.8 4.8l-11.3-6.5 21-9.9zm2.4-1.1l13.5-6.3-14.9 19.9c-.5-.3-1.1-.5-1.7-.6l3.1-13zm144.3-68.1l68.8-32.5c.7 1.1 1.6 1.9 2.7 2.5L708 267.8l-49.8-24.2zm73.4-29.2c.6.2 1.2.2 1.9.2.5 0 1.1-.1 1.6-.2l25.8 73.3c-1.7.8-3.1 2.1-3.9 3.9l-47.1-22.9 21.7-54.3zm5.4-.6c1.8-.9 3.2-2.5 3.8-4.5l89.5 15.9v.3c0 1.7.5 3.2 1.4 4.5l-62.9 58.9c-1.3-1.1-3-1.7-4.9-1.7-.4 0-.8 0-1.2.1L737 213.8zm82.4-50.5c.1.4.2.8.3 1.1l-79.8 38.4c-1.4-2.1-3.7-3.5-6.4-3.5-3 0-5.7 1.8-6.9 4.4l-102.9-33.5 195.7-6.9zM726 205.6c-.1.5-.1.9-.1 1.4 0 .8.1 1.6.4 2.3L656 242.4 603.9 217c.3-.8.4-1.6.4-2.4 0-4.2-3.4-7.7-7.7-7.7s-7.7 3.4-7.7 7.7v.5l-1.7.3-191 4.1 18.3-42.1 203.3-7.1L726 205.6zm-277.7-90.5l164 53.4-196.9 6.9 24.4-56c.5.1 1 .2 1.5.2 3.2.1 5.8-1.8 7-4.5zm-8.9-73.3c.5 3.1 2.8 5.6 5.8 6.3l-4.3 56.3c-3.9.2-7 3.3-7.2 7.2l-191.2 14.2c0-.2-.1-.3-.1-.5l197-83.5zM235.5 135c3.9-.2 7-3.3 7.2-7.2l191.2-14.2c.5 2.3 2 4.3 4.1 5.3l-24.7 56.7-181 6.4 3.2-47zm-2-.1l-3.3 47.1-12 .4c-.4-2.3-1.7-4.2-3.6-5.3l18.3-42.4c.2.1.4.1.6.2zm-25.2 41.5l-40.3-85c.7-.5 1.3-1 1.9-1.7l58.1 34.6c-.4.9-.6 2-.6 3 0 2.8 1.5 5.2 3.7 6.6l-18.3 42.4c-.7-.2-1.4-.3-2.1-.3-.9 0-1.6.1-2.4.4zm15 104.2l-10.7-89.5c3.1-.8 5.4-3.4 5.7-6.7l11.7-.4-6.7 96.6zm1.9 1.6l6.9-98.2 180.3-6.3-18.4 41.9-71.8 1.5c-.6-3.7-3.7-6.5-7.6-6.5-4.2 0-7.7 3.4-7.7 7.7 0 1.3.4 2.6 1 3.7l-78.7 58.4c-1.1-1.1-2.5-1.9-4-2.2zm88.9-11.7l-83.2 16.7c-.1-.4-.3-.8-.5-1.2l78.8-58.3c1.2 1.2 2.8 2.1 4.6 2.3l.3 40.5zm-1.8 126.7l-84.1-101.3c1.9-1.4 3.2-3.6 3.2-6.2v-.5l82.8-16.7 1.1 123.6c-1.1.1-2.2.5-3 1.1zm8.4-170.2l54.2 31.2-58.8 11.8-.4-40.1c2-.3 3.8-1.4 5-2.9zm-4.8 241.8l1.3-57.5c3.8-.4 6.8-3.7 6.8-7.6 0-.8-.1-1.6-.4-2.3l164.8-77.7 13 7.5c0 .3-.1.6-.1.9 0 1.4.4 2.6 1 3.7L320.2 471a6.9 6.9 0 0 0-4.3-2.2zm25.5 84c-.8-.3-1.8-.5-2.7-.5-.4 0-.8 0-1.1.1l-19.9-69c2.7-1.2 4.6-3.9 4.6-7 0-.9-.2-1.8-.5-2.6l82.2-43c.5.7 1.1 1.3 1.8 1.8l-64.4 120.2zm73.7-132.4c-1.3-1.1-3-1.7-4.8-1.7-4.2 0-7.7 3.4-7.7 7.7 0 .9.2 1.8.5 2.6l-77.7 40.6 171.3-127.2-81.6 78zm2.3 2.7c-.2-.5-.5-.9-.8-1.3l87.7-83.8c1.3 1.1 3 1.7 4.8 1.7 4 0 7.4-3.1 7.8-7L659 304.9 417.4 423.1zm193.2 67.6l-192.7-63 188.6-4c.5 3.5 3.4 6.2 6.9 6.5l2.8 56.3c-2.5.4-4.6 2-5.6 4.2zm9.9-3.8c-.7-.3-1.5-.5-2.3-.6l-2.8-56.3c3.6-.6 6.3-3.8 6.3-7.5 0-1-.2-1.9-.5-2.7l40-34.6-40.7 101.7zm42.3-105.8L620.2 418c-1.4-1.9-3.6-3.1-6.2-3.1-4 0-7.2 3-7.6 6.8l-188.4 4c0-.2-.1-.5-.1-.7l241.7-118.2c1.4 2.1 3.7 3.4 6.4 3.4 3 0 5.7-1.8 6.9-4.4l17.7 5.8-27.8 69.5zm3.3-2.9l26.4-66 36.2 11.8-62.6 54.2zm64.3-55.7l-37.2-12.1 15.9-39.7 47.3 23c-.1.4-.1.8-.1 1.2 0 1.5.5 3 1.2 4.2l-27.1 23.4zm55.1 18l-52.8-17.3 26.2-22.7c1.4 1.2 3.2 2 5.1 2 1 0 2-.2 2.9-.6l20.5 36.4c-.8.7-1.4 1.4-1.9 2.2zm10.4-2.6c-1.1-.7-2.4-1-3.9-1-1 0-2 .2-2.9.6l-20.5-36.4c1.9-1.4 3.1-3.6 3.1-6.1 0-1.7-.5-3.2-1.4-4.5l62.9-58.9c.4.3.8.6 1.3.9l-38.6 105.4zM836.3 233c.5.1 1.1.2 1.7.2.3 0 .6 0 1-.1L865.8 335c-3.1.7-5.6 3.4-5.9 6.7l-60.3 1.6c-.3-1.6-1-3-2.1-4.1L836.3 233zm84.5 257.6l-123-141.1c1-1.2 1.7-2.6 1.9-4.3l60.3-1.6c.6 3.7 3.7 6.5 7.6 6.5.6 0 1.2-.1 1.7-.2l52.2 140.3c-.3.2-.5.3-.7.4zm-49.7-141.4l.9-.6 43.6 45.8 7.7 95.1-52.2-140.3zM1001 549h-.3c-2.6 0-5 1.3-6.3 3.4l-62.8-51.3c.7-1.2 1.2-2.6 1.2-4 0-4.1-3.2-7.5-7.3-7.6l-7.6-92.5 87.8 92.3c-1.1 1.3-1.7 3-1.7 4.8 0 3.4 2.3 6.4 5.4 7.3L1001 549z" fill="#fff" fill-opacity=".75"/></svg>